<?xml version="1.0" standalone="no"?>
<!DOCTYPE svg PUBLIC "-//W3C//DTD SVG 1.1//EN" "http://www.w3.org/Graphics/SVG/1.1/DTD/svg11.dtd" >
<svg xmlns="http://www.w3.org/2000/svg" xmlns:xlink="http://www.w3.org/1999/xlink" version="1.1">
<metadata>
Created by FontForge 20170731 at Fri Oct 23 17:40:18 2020
 By Aleksey,,,
Copyright (c) 2015 Turner Broadcasting System, Inc. All rights reserved.
</metadata>
<defs>
<font id="Turner-Bold" horiz-adv-x="1234" >
  <font-face 
    font-family="Turner"
    font-weight="700"
    font-stretch="normal"
    units-per-em="2048"
    panose-1="2 0 0 0 0 0 0 0 0 0"
    ascent="1536"
    descent="-512"
    x-height="1024"
    cap-height="1434"
    bbox="-143 -512 2230 1968"
    underline-thickness="0"
    underline-position="0"
    unicode-range="U+000D-FB02"
  />
<missing-glyph horiz-adv-x="989" 
d="M866 0h-743v1536h743v-1536zM197 117l254 649l-254 649v-1298zM793 117v1298l-254 -649zM494 862l237 592h-473zM731 78l-237 590l-236 -590h473z" />
    <glyph glyph-name="fi" unicode="fi" horiz-adv-x="1228" 
d="M1126 0h-348v737h-211v-737h-348v737h-188v287h188v33q0 432 453 432q97 0 250 -25v-280q-96 16 -179 16q-85 0 -130.5 -28.5t-45.5 -106.5v-41h559v-1024z" />
    <glyph glyph-name="fl" unicode="fl" horiz-adv-x="1331" 
d="M1229 0h-348v1188q-78 16 -156 16q-83 0 -120.5 -29t-37.5 -108v-43h230v-287h-230v-737h-348v737h-188v287h188v33q0 432 473 432q164 0 537 -57v-1432z" />
    <glyph glyph-name=".notdef" horiz-adv-x="989" 
d="M866 0h-743v1536h743v-1536zM197 117l254 649l-254 649v-1298zM793 117v1298l-254 -649zM494 862l237 592h-473zM731 78l-237 590l-236 -590h473z" />
    <glyph glyph-name=".null" horiz-adv-x="0" 
 />
    <glyph glyph-name="nonmarkingreturn" horiz-adv-x="682" 
 />
    <glyph glyph-name="NULL" horiz-adv-x="0" 
 />
    <glyph glyph-name="NULL" horiz-adv-x="0" 
 />
    <glyph glyph-name="CR" unicode="&#xd;" horiz-adv-x="471" 
 />
    <glyph glyph-name="space" unicode=" " horiz-adv-x="471" 
 />
    <glyph glyph-name="exclam" unicode="!" horiz-adv-x="569" 
d="M430 512h-291l-51 922h393zM285 -12q-83 0 -141 58.5t-58 141.5t58 142t141 59t140.5 -58.5t57.5 -142.5q0 -83 -57.5 -141.5t-140.5 -58.5z" />
    <glyph glyph-name="quotedbl" unicode="&#x22;" horiz-adv-x="768" 
d="M301 932h-209l-31 502h271zM676 932h-209l-31 502h271z" />
    <glyph glyph-name="numbersign" unicode="#" horiz-adv-x="1458" 
d="M987 0h-244l64 369h-281l-63 -369h-244l64 369h-232v202h268l52 291h-244v203h279l65 369h244l-66 -369h281l65 369h244l-65 -369h233v-203h-268l-52 -291h244v-202h-280zM844 571l51 291h-281l-51 -291h281z" />
    <glyph glyph-name="dollar" unicode="$" horiz-adv-x="1175" 
d="M659 -154h-129v189q-225 10 -430 115v296q201 -131 430 -141v305q-78 20 -138 41.5t-123 57t-104 77.5t-67 104.5t-26 137.5q0 90 35.5 159.5t98.5 113.5t145 67.5t179 26.5v192h129v-196q164 -19 338 -86v-289q-189 90 -338 110v-252q75 -21 133 -42t121.5 -56.5
t105 -77t68.5 -103t27 -134.5q0 -178 -126 -289.5t-329 -132.5v-193zM659 575v-262q136 26 136 136q0 46 -35 74.5t-101 51.5zM530 909v224q-67 -5 -104 -30t-37 -67q0 -44 34 -73.5t107 -53.5z" />
    <glyph glyph-name="percent" unicode="%" horiz-adv-x="1574" 
d="M471 0h-240l873 1434h239zM391 795q-139 0 -234.5 97t-95.5 234t95.5 234.5t234.5 97.5t235.5 -97.5t96.5 -234.5t-96.5 -234t-235.5 -97zM393 1012q45 0 74 33t29 81t-29 81.5t-74 33.5t-73.5 -33.5t-28.5 -81.5t28.5 -81t73.5 -33zM1182 -25q-139 0 -234.5 97.5
t-95.5 234.5t95.5 234.5t234.5 97.5t235 -97.5t96 -234.5t-96 -234.5t-235 -97.5zM1184 193q45 0 73.5 33t28.5 81t-28.5 81.5t-73.5 33.5t-74 -33.5t-29 -81.5t29 -81t74 -33z" />
    <glyph glyph-name="ampersand" unicode="&#x26;" horiz-adv-x="1435" 
d="M1468 0h-374l-136 143q-175 -168 -403 -168q-90 0 -172.5 28.5t-148 81t-105 136t-39.5 185.5q0 135 67 231t179 170q-60 75 -91.5 144.5t-31.5 152.5q0 161 115 257.5t286 96.5q174 0 279.5 -98.5t105.5 -245.5q0 -219 -249 -356l182 -189q38 89 82 228h289
q-61 -214 -177 -435zM778 334l-268 284q-135 -92 -135 -215q0 -85 56.5 -129.5t131.5 -44.5q59 0 116.5 26.5t98.5 78.5zM580 940q137 78 137 168q0 42 -29.5 70t-77.5 28t-80 -28.5t-32 -73.5q0 -37 21 -75t61 -89z" />
    <glyph glyph-name="quotesingle" unicode="'" horiz-adv-x="393" 
d="M301 932h-209l-31 502h271z" />
    <glyph glyph-name="parenleft" unicode="(" horiz-adv-x="772" 
d="M731 -98v-318q-308 158 -473.5 431.5t-165.5 611.5q0 337 165.5 610.5t473.5 431.5v-317q-150 -119 -230.5 -302.5t-80.5 -422.5t80.5 -422.5t230.5 -302.5z" />
    <glyph glyph-name="parenright" unicode=")" horiz-adv-x="772" 
d="M41 -416v318q150 119 230.5 302.5t80.5 422.5t-80.5 422.5t-230.5 302.5v317q308 -158 473.5 -431.5t165.5 -610.5q0 -338 -165.5 -611.5t-473.5 -431.5z" />
    <glyph glyph-name="asterisk" unicode="*" horiz-adv-x="888" 
d="M772 840l-205 -150l-123 260l-122 -260l-205 150l202 198l-278 35l78 242l250 -133l-52 276h254l-53 -278l252 135l78 -242l-281 -35z" />
    <glyph glyph-name="plus" unicode="+" horiz-adv-x="1421" 
d="M840 82h-258v510h-510v258h510v510h258v-510h510v-258h-510v-510z" />
    <glyph glyph-name="comma" unicode="," horiz-adv-x="540" 
d="M270 -264h-155l131 254q-75 7 -124.5 64t-49.5 134q0 84 57.5 142.5t140.5 58.5t141 -57t58 -139q0 -79 -61 -195z" />
    <glyph glyph-name="hyphen" unicode="-" horiz-adv-x="765" 
d="M694 592h-622v258h622v-258z" />
    <glyph glyph-name="period" unicode="." horiz-adv-x="540" 
d="M270 -12q-83 0 -140.5 58.5t-57.5 141.5q0 84 57.5 142.5t140.5 58.5t141 -59t58 -142t-58 -141.5t-141 -58.5z" />
    <glyph glyph-name="slash" unicode="/" horiz-adv-x="806" 
d="M299 -82h-309l516 1598h309z" />
    <glyph glyph-name="zero" unicode="0" horiz-adv-x="1388" 
d="M694 270q119 0 182.5 123t63.5 324t-63.5 323.5t-182.5 122.5t-182 -122.5t-63 -323.5t63 -324t182 -123zM694 -25q-187 0 -325.5 100t-207.5 266.5t-69 375.5q0 156 40.5 290.5t115.5 235t190 158t256 57.5t256 -57.5t190 -158t115.5 -235t40.5 -290.5
q0 -209 -69 -375.5t-207.5 -266.5t-325.5 -100z" />
    <glyph glyph-name="one" unicode="1" horiz-adv-x="802" 
d="M670 0h-359v1112h-266v322h625v-1434z" />
    <glyph glyph-name="two" unicode="2" horiz-adv-x="1163" 
d="M1094 0h-981v248l487 506q129 132 129 247q0 73 -39.5 115.5t-109.5 42.5q-75 0 -121 -56t-56 -163h-331q15 242 149 380t363 138q141 0 253 -52.5t179 -156.5t67 -243q0 -250 -252 -474l-258 -229h521v-303z" />
    <glyph glyph-name="three" unicode="3" horiz-adv-x="1206" 
d="M567 596h-100v270h80q94 0 145 44t51 114q0 66 -42.5 100.5t-106.5 34.5q-76 0 -121.5 -50t-50.5 -128h-340q8 215 150.5 346t373.5 131q216 0 353 -106.5t137 -274.5q0 -101 -50.5 -184.5t-160.5 -136.5q250 -107 250 -348q0 -186 -151 -309.5t-372 -123.5
q-153 0 -278 62.5t-198 176t-75 257.5h342q4 -89 60 -143t141 -54q78 0 128 44.5t50 117.5t-56 116.5t-159 43.5z" />
    <glyph glyph-name="four" unicode="4" horiz-adv-x="1280" 
d="M1051 0h-338v287h-652v243l605 902h385v-846h184v-299h-184v-287zM713 586v444l-273 -444h273z" />
    <glyph glyph-name="five" unicode="5" horiz-adv-x="1150" 
d="M47 88l41 293q186 -107 358 -107q131 0 200 58t69 155q0 103 -80.5 158t-235.5 55q-153 0 -293 -45l101 779h835v-304h-557l-24 -188q27 2 63 2q244 0 394.5 -118.5t150.5 -333.5q0 -227 -159.5 -372t-417.5 -145q-228 0 -445 113z" />
    <glyph glyph-name="six" unicode="6" horiz-adv-x="1249" 
d="M639 946h14q105 0 198.5 -31t165 -88.5t113 -145.5t41.5 -196q0 -218 -152 -364t-384 -146q-241 0 -397 148t-156 373q0 223 182 481l316 457h419l-323 -439zM627 264q90 0 145 58t55 151q0 91 -54.5 147t-143.5 56t-146 -55t-57 -152q0 -96 56 -150.5t145 -54.5z" />
    <glyph glyph-name="seven" unicode="7" horiz-adv-x="1103" 
d="M571 0h-387l480 1130h-613v304h1002v-215z" />
    <glyph glyph-name="eight" unicode="8" horiz-adv-x="1241" 
d="M946 758q108 -59 162.5 -146.5t54.5 -191.5q0 -123 -67.5 -224t-192.5 -161t-282 -60t-282 60t-193 161t-68 224q0 104 54.5 191.5t162.5 146.5q-84 55 -129 136t-45 173q0 173 145 282t355 109t354.5 -109t144.5 -282q0 -91 -45.5 -172.5t-128.5 -136.5zM817 428
q0 78 -56.5 131t-139.5 53t-140 -53t-57 -131t57 -131t140 -53t139.5 53t56.5 131zM621 881q67 0 112 44.5t45 112.5t-45 113t-112 45t-112.5 -45t-45.5 -113q0 -67 45 -112t113 -45z" />
    <glyph glyph-name="nine" unicode="9" horiz-adv-x="1249" 
d="M670 0h-420l313 422l47 65h-14q-105 0 -198.5 31t-165 88.5t-113 145.5t-41.5 196q0 218 152 364t384 146q241 0 397 -147.5t156 -372.5q0 -223 -182 -481zM621 758q89 0 145.5 55t56.5 152q0 96 -55.5 150t-144.5 54q-90 0 -145.5 -57.5t-55.5 -150.5q0 -91 55 -147
t144 -56z" />
    <glyph glyph-name="colon" unicode=":" horiz-adv-x="540" 
d="M270 -12q-83 0 -140.5 58.5t-57.5 141.5q0 84 57.5 142.5t140.5 58.5t141 -59t58 -142t-58 -141.5t-141 -58.5zM270 592q-83 0 -140.5 58.5t-57.5 142.5q0 83 57.5 141.5t140.5 58.5t141 -58.5t58 -141.5t-58 -142t-141 -59z" />
    <glyph glyph-name="semicolon" unicode=";" horiz-adv-x="538" 
d="M268 592q-83 0 -140.5 58.5t-57.5 142.5q0 83 57.5 141.5t140.5 58.5t141 -58.5t58 -141.5t-58 -142t-141 -59zM268 -264h-155l131 254q-75 7 -124.5 64t-49.5 134q0 84 57.5 142.5t140.5 58.5t141 -57t58 -139q0 -79 -61 -195z" />
    <glyph glyph-name="less" unicode="&#x3c;" horiz-adv-x="1208" 
d="M1147 4l-1086 590v256l1086 590v-301l-805 -418l805 -416v-301z" />
    <glyph glyph-name="equal" unicode="=" horiz-adv-x="1216" 
d="M1135 367h-1053v258h1053v-258zM1135 817h-1053v258h1053v-258z" />
    <glyph glyph-name="greater" unicode="&#x3e;" horiz-adv-x="1208" 
d="M1147 594l-1086 -590v301l805 416l-805 418v301l1086 -590v-256z" />
    <glyph glyph-name="question" unicode="?" horiz-adv-x="1009" 
d="M473 -12q-83 0 -141 58.5t-58 141.5t58 142t141 59t141 -59t58 -142t-58 -141.5t-141 -58.5zM612 514h-280v82q0 128 43 204.5t149 145.5q55 37 82 67t27 72q0 45 -34.5 72t-90.5 27q-78 0 -121 -48.5t-49 -136.5h-301q7 218 142 342.5t339 124.5q63 0 123.5 -12
t118.5 -39.5t101.5 -68t70 -102.5t26.5 -138q0 -63 -19 -116.5t-55.5 -95.5t-68.5 -69.5t-78 -58.5q-68 -46 -96.5 -94t-28.5 -117v-41z" />
    <glyph glyph-name="at" unicode="@" horiz-adv-x="1712" 
d="M1346 61v-180q-99 -68 -233.5 -103.5t-268.5 -35.5q-137 0 -256.5 38t-209.5 106.5t-155 160.5t-98 204t-33 234q0 167 63 315t171.5 254t261.5 168t327 62q147 0 277.5 -44.5t227.5 -124.5t153.5 -198t56.5 -258q0 -120 -41 -226t-104 -175t-136.5 -109t-140.5 -40
q-75 0 -130 45.5t-66 111.5q-109 -178 -275 -178q-127 0 -204.5 97.5t-77.5 263.5q0 146 56.5 264t146 181.5t190.5 63.5q154 0 223 -112l33 69h174l-90 -514q-20 -125 45 -125q48 0 100 50.5t89.5 142t37.5 193.5q0 141 -73.5 247t-196 160.5t-275.5 54.5q-184 0 -333 -80
t-234.5 -224.5t-85.5 -325.5q0 -120 39 -226.5t111 -188t182.5 -129.5t245.5 -48q133 0 270 44t236 115zM805 305q79 0 136.5 83t57.5 214q0 71 -29 112.5t-85 41.5q-79 0 -137 -83t-58 -214q0 -71 29.5 -112.5t85.5 -41.5z" />
    <glyph glyph-name="A" unicode="A" horiz-adv-x="1474" 
d="M1475 0h-394l-104 317h-477l-109 -317h-391l537 1434h401zM891 584l-154 465l-155 -465h309z" />
    <glyph glyph-name="B" unicode="B" horiz-adv-x="1382" 
d="M782 0h-649v1434h655q106 0 194.5 -19t161 -58.5t113.5 -109.5t41 -164q0 -100 -55 -186.5t-170 -142.5q129 -49 193.5 -138t64.5 -202q0 -134 -71.5 -228.5t-193.5 -140t-284 -45.5zM510 291h248q194 0 194 151q0 152 -194 152h-248v-303zM510 864h229q183 0 183 137
q0 142 -183 142h-229v-279z" />
    <glyph glyph-name="C" unicode="C" horiz-adv-x="1294" 
d="M1223 393v-340q-169 -78 -387 -78q-158 0 -298.5 58t-240 157t-157.5 236t-58 291q0 205 98 375t271.5 268t384.5 98q218 0 387 -78v-340q-77 47 -174.5 75t-192.5 28q-179 0 -286 -120t-107 -306t107 -306t286 -120q95 0 193 27.5t174 74.5z" />
    <glyph glyph-name="D" unicode="D" horiz-adv-x="1517" 
d="M612 0h-479v1434h479q239 0 422 -82q187 -83 294.5 -244.5t107.5 -390.5t-107.5 -390.5t-294.5 -244.5q-183 -82 -422 -82zM508 309h104q121 0 211 37q110 44 172 138.5t62 232.5t-62 232t-172 138q-90 37 -211 37h-104v-815z" />
    <glyph glyph-name="E" unicode="E" horiz-adv-x="1292" 
d="M1241 0h-1108v1434h1108v-312h-733v-235h653v-314h-653v-262h733v-311z" />
    <glyph glyph-name="F" unicode="F" horiz-adv-x="1261" 
d="M1159 543h-651v-543h-375v1434h1098v-312h-723v-266h651v-313z" />
    <glyph glyph-name="G" unicode="G" horiz-adv-x="1601" 
d="M1153 541h-412v290h781q8 -46 8 -135q0 -176 -60 -313q-84 -190 -248.5 -299t-408.5 -109q-158 0 -295 57.5t-232 157t-149.5 236.5t-54.5 291t59.5 291t163 236t251.5 156.5t318 57.5q266 0 453 -90v-338q-195 113 -430 113q-208 0 -322 -118.5t-114 -307.5
q0 -188 98.5 -309t267.5 -121q121 0 213 67t113 187z" />
    <glyph glyph-name="H" unicode="H" horiz-adv-x="1564" 
d="M1432 0h-375v575h-549v-575h-375v1434h375v-545h549v545h375v-1434z" />
    <glyph glyph-name="I" unicode="I" horiz-adv-x="641" 
d="M508 0h-375v1434h375v-1434z" />
    <glyph glyph-name="J" unicode="J" horiz-adv-x="1128" 
d="M631 571v863h375v-820q0 -142 -23 -243q-41 -184 -168 -290t-348 -106q-101 0 -216.5 25.5t-199.5 73.5v340q88 -64 176.5 -92.5t159.5 -28.5q169 0 221 133q23 62 23 145z" />
    <glyph glyph-name="K" unicode="K" horiz-adv-x="1372" 
d="M1411 0h-465l-438 678v-678h-375v1434h375v-654l397 654h459l-473 -697z" />
    <glyph glyph-name="L" unicode="L" horiz-adv-x="1298" 
d="M1247 0h-1114v1434h375v-1123h739v-311z" />
    <glyph glyph-name="M" unicode="M" horiz-adv-x="1785" 
d="M1653 0h-365v842h-2l-391 -701h-6l-389 701h-2v-842h-365v1434h381l379 -691l379 691h381v-1434z" />
    <glyph glyph-name="N" unicode="N" horiz-adv-x="1548" 
d="M1415 0h-399l-522 846v-846h-361v1434h402l522 -844v844h358v-1434z" />
    <glyph glyph-name="O" unicode="O" horiz-adv-x="1669" 
d="M1587 717q0 -153 -58.5 -291t-159 -236.5t-239.5 -156.5t-294 -58q-208 0 -381 98t-273 268.5t-100 375.5t100 375t273 268t381 98q207 0 379.5 -98t272 -268t99.5 -375zM836 291q160 0 266 120.5t106 305.5t-106 305.5t-266 120.5q-162 0 -267.5 -120t-105.5 -306
t105.5 -306t267.5 -120z" />
    <glyph glyph-name="P" unicode="P" horiz-adv-x="1366" 
d="M508 0h-375v1434h600q122 0 223.5 -28t180.5 -85t123.5 -151t44.5 -218q0 -125 -44.5 -219.5t-123.5 -151t-180.5 -84.5t-223.5 -28h-225v-469zM508 778h225q193 0 193 174t-193 174h-225v-348z" />
    <glyph glyph-name="Q" unicode="Q" horiz-adv-x="1669" 
d="M1462 -41l-248 -156l-137 209q-122 -37 -241 -37q-208 0 -381 98t-273 268.5t-100 375.5t100 375t273 268t381 98q207 0 379.5 -98t272 -268t99.5 -375q0 -167 -67.5 -312.5t-188.5 -248.5zM891 295l-146 223l248 156l144 -219q71 114 71 262q0 185 -106 305.5
t-266 120.5q-162 0 -267.5 -120t-105.5 -306t105.5 -306t267.5 -120q37 0 55 4z" />
    <glyph glyph-name="R" unicode="R" horiz-adv-x="1437" 
d="M1386 0h-425l-244 518h-207v-518h-377v1434h615q159 0 278 -45q132 -49 206.5 -151t74.5 -253q0 -153 -90 -264q-59 -71 -144 -117zM510 817h231q65 0 111 21q78 37 78 133q0 95 -78 135q-49 22 -111 22h-231v-311z" />
    <glyph glyph-name="S" unicode="S" horiz-adv-x="1265" 
d="M92 102v340q130 -88 248.5 -125.5t255.5 -37.5q114 0 174.5 38.5t60.5 112.5q0 68 -55.5 103t-165.5 63q-96 21 -167 43.5t-141 59t-114 83.5t-71 115.5t-27 155.5q0 86 28.5 155.5t76.5 115.5t115 76.5t140 44t154 13.5q261 0 502 -100v-338q-139 70 -268.5 102.5
t-214.5 32.5q-76 0 -119 -25.5t-43 -76.5q0 -59 52 -91t179 -61q86 -20 151.5 -41.5t136.5 -58.5t117.5 -83.5t76.5 -116t30 -155.5q0 -146 -79.5 -254.5t-209.5 -162.5t-292 -54q-285 0 -531 127z" />
    <glyph glyph-name="T" unicode="T" horiz-adv-x="1394" 
d="M885 0h-375v1122h-459v312h1292v-312h-458v-1122z" />
    <glyph glyph-name="U" unicode="U" horiz-adv-x="1525" 
d="M1026 637v797h377v-803q0 -213 -74 -361q-147 -295 -567 -295q-411 0 -561 287q-78 150 -78 369v803h375v-797q0 -85 14 -145q50 -205 250 -205q203 0 250 202q14 60 14 148z" />
    <glyph glyph-name="V" unicode="V" horiz-adv-x="1433" 
d="M897 0h-360l-537 1434h393l324 -990l323 990h394z" />
    <glyph glyph-name="W" unicode="W" horiz-adv-x="1996" 
d="M1624 0h-403l-217 965h-9l-217 -965h-403l-365 1434h398l190 -936h8l213 936h361l211 -936h10l190 936h396z" />
    <glyph glyph-name="X" unicode="X" horiz-adv-x="1462" 
d="M1473 0h-439l-305 516l-303 -516h-436l487 745l-444 689h438l256 -453l262 453h438l-444 -689z" />
    <glyph glyph-name="Y" unicode="Y" horiz-adv-x="1413" 
d="M893 0h-373v586l-551 848h426l310 -539h4l309 539h426l-551 -848v-586z" />
    <glyph glyph-name="Z" unicode="Z" horiz-adv-x="1376" 
d="M1325 0h-1292v4l669 1118h-634v312h1255v-4l-668 -1119h670v-311z" />
    <glyph glyph-name="bracketleft" unicode="[" horiz-adv-x="729" 
d="M688 -412h-586v2081h586v-223h-262v-1634h262v-224z" />
    <glyph glyph-name="backslash" unicode="\" horiz-adv-x="806" 
d="M815 -82h-309l-516 1598h309z" />
    <glyph glyph-name="bracketright" unicode="]" horiz-adv-x="729" 
d="M627 -412h-586v224h262v1634h-262v223h586v-2081z" />
    <glyph glyph-name="asciicircum" unicode="^" horiz-adv-x="1081" 
d="M1061 707h-311l-209 485l-209 -485h-312l361 751h319z" />
    <glyph glyph-name="underscore" unicode="_" horiz-adv-x="1052" 
d="M1053 -301h-1053v258h1053v-258z" />
    <glyph glyph-name="grave" unicode="`" horiz-adv-x="1024" 
d="M700 1155h-231l-324 340v14h363z" />
    <glyph glyph-name="a" unicode="a" 
d="M1133 0h-328v109q-108 -134 -289 -134q-134 0 -236 71t-155 192t-53 274t53 274t155 192t236 71q160 0 268 -111v86h349v-1024zM606 248q83 0 137 73t54 191t-54 191t-137 73t-136.5 -72.5t-53.5 -191.5t53.5 -191.5t136.5 -72.5z" />
    <glyph glyph-name="b" unicode="b" 
d="M430 0h-328v1434h349v-496q108 111 268 111q134 0 236 -71t155 -192t53 -274t-53 -274t-155 -192t-236 -71q-181 0 -289 134v-109zM629 248q83 0 136.5 72.5t53.5 191.5t-53.5 191.5t-136.5 72.5t-137 -73t-54 -191t54 -191t137 -73z" />
    <glyph glyph-name="c" unicode="c" horiz-adv-x="1036" 
d="M973 344v-278q-175 -91 -355 -91q-239 0 -392.5 153t-153.5 384t153.5 384t392.5 153q180 0 355 -91v-278q-160 96 -295 96q-123 0 -192.5 -71.5t-69.5 -192.5t69.5 -192.5t192.5 -71.5q135 0 295 96z" />
    <glyph glyph-name="d" unicode="d" 
d="M1133 0h-328v109q-108 -134 -289 -134q-134 0 -236 71t-155 192t-53 274t53 274t155 192t236 71q160 0 268 -111v496h349v-1434zM606 248q83 0 137 73t54 191t-54 191t-137 73t-136.5 -72.5t-53.5 -191.5t53.5 -191.5t136.5 -72.5z" />
    <glyph glyph-name="e" unicode="e" horiz-adv-x="1177" 
d="M1106 436h-717q16 -95 73 -145.5t132 -50.5q127 0 180 112h309q-56 -171 -180.5 -274t-312.5 -103q-143 0 -261.5 70t-187.5 193.5t-69 273.5q0 113 40.5 212.5t111 170.5t168.5 112.5t208 41.5q148 0 266 -71t182 -190.5t64 -263.5q0 -58 -6 -88zM397 643h371
q-14 73 -65 111.5t-121 38.5q-68 0 -117.5 -38t-67.5 -112z" />
    <glyph glyph-name="f" unicode="f" horiz-adv-x="849" 
d="M567 0h-348v737h-188v287h188v33q0 200 100 316t312 116q95 0 188 -19v-280q-60 10 -104 10q-71 0 -109.5 -28.5t-38.5 -106.5v-41h250v-287h-250v-737z" />
    <glyph glyph-name="g" unicode="g" 
d="M805 33v100q-107 -133 -289 -133q-134 0 -236 70t-155 188.5t-53 265.5q0 225 121 375t319 150q144 0 252 -93v68h369v-975q0 -261 -138 -404t-368 -143q-92 0 -174.5 24t-154 73t-120.5 133.5t-65 195.5h313q14 -74 67 -110.5t123 -36.5q92 0 140.5 64.5t48.5 187.5z
M606 272q83 0 137 70.5t54 181.5t-54 181.5t-137 70.5q-82 0 -136 -70t-54 -182t54 -182t136 -70z" />
    <glyph glyph-name="h" unicode="h" horiz-adv-x="1214" 
d="M1122 0h-348v573q0 74 -10 105q-28 98 -133 98q-88 0 -134 -64.5t-46 -179.5v-532h-349v1434h349v-527q56 65 136.5 103.5t174.5 38.5q126 0 209.5 -59t120.5 -169q30 -88 30 -248v-573z" />
    <glyph glyph-name="i" unicode="i" horiz-adv-x="552" 
d="M451 0h-349v1024h349v-1024zM475 1327q0 -80 -58 -135t-143 -55q-84 0 -141 55t-57 135t57 136.5t141 56.5t142.5 -56.5t58.5 -136.5z" />
    <glyph glyph-name="j" unicode="j" horiz-adv-x="589" 
d="M-113 -453v279q60 -10 105 -10q70 0 108.5 28.5t38.5 106.5v1073h348v-1063q0 -200 -99.5 -316t-311.5 -116q-101 0 -189 18zM514 1327q0 -80 -58 -135t-143 -55q-84 0 -141 55t-57 135t57 136.5t141 56.5t142.5 -56.5t58.5 -136.5z" />
    <glyph glyph-name="k" unicode="k" horiz-adv-x="1091" 
d="M1135 0h-396l-288 473v-473h-349v1434h349v-850l258 440h378l-319 -494z" />
    <glyph glyph-name="l" unicode="l" horiz-adv-x="552" 
d="M451 0h-349v1434h349v-1434z" />
    <glyph glyph-name="m" unicode="m" horiz-adv-x="1800" 
d="M1708 0h-348v575q0 72 -8 105q-26 96 -117 96q-74 0 -115 -59.5t-41 -163.5v-553h-348v575q0 72 -8 105q-26 96 -117 96q-76 0 -115.5 -64.5t-39.5 -179.5v-532h-349v1024h328v-139q60 84 130 124t173 40q101 0 179 -48t118 -131q56 84 140 131.5t190 47.5
q116 0 201 -62.5t118 -165.5q29 -95 29 -246v-575z" />
    <glyph glyph-name="n" unicode="n" horiz-adv-x="1214" 
d="M1122 0h-348v573q0 74 -10 105q-28 98 -133 98q-88 0 -134 -64.5t-46 -179.5v-532h-349v1024h328v-139q134 164 332 164q126 0 209.5 -59t120.5 -169q30 -88 30 -248v-573z" />
    <glyph glyph-name="o" unicode="o" horiz-adv-x="1204" 
d="M602 -25q-148 0 -269.5 70t-191 193.5t-69.5 273.5t69.5 273.5t191 193.5t269.5 70t270 -70t191.5 -193.5t69.5 -273.5t-69.5 -273.5t-191.5 -193.5t-270 -70zM602 248q83 0 137 73.5t54 190.5t-54 190.5t-137 73.5t-136.5 -73.5t-53.5 -190.5t53.5 -190.5t136.5 -73.5z
" />
    <glyph glyph-name="p" unicode="p" 
d="M451 -410h-349v1434h328v-111q107 136 289 136q134 0 236 -71t155 -192t53 -274t-53 -274t-155 -192t-236 -71q-160 0 -268 111v-496zM629 248q83 0 136.5 72.5t53.5 191.5t-53.5 191.5t-136.5 72.5t-137 -73t-54 -191t54 -191t137 -73z" />
    <glyph glyph-name="q" unicode="q" 
d="M1133 -410h-349v494q-106 -109 -268 -109q-134 0 -236 71t-155 192t-53 274t53 274t155 192t236 71q160 0 268 -111v86h349v-1434zM606 248q83 0 137 73t54 191t-54 191t-137 73t-136.5 -72.5t-53.5 -191.5t53.5 -191.5t136.5 -72.5z" />
    <glyph glyph-name="r" unicode="r" horiz-adv-x="878" 
d="M451 0h-349v1024h328v-193q87 211 328 211q50 0 90 -4v-293q-49 7 -70 7q-225 0 -297 -191q-30 -79 -30 -237v-324z" />
    <glyph glyph-name="s" unicode="s" horiz-adv-x="997" 
d="M78 76v274q199 -117 385 -117q83 0 127.5 23t44.5 61q0 23 -12.5 38t-43 25.5t-56 15t-77.5 12.5q-370 57 -370 325q0 70 24.5 125.5t64 90.5t94 58t110.5 32.5t118 9.5q210 0 394 -78v-269q-98 44 -202 66.5t-173 22.5q-127 0 -127 -62q0 -35 38 -53t132 -37
q67 -13 114 -26t103.5 -38t91 -57t58.5 -83.5t24 -117.5q0 -164 -128 -253t-331 -89q-219 0 -403 101z" />
    <glyph glyph-name="t" unicode="t" horiz-adv-x="884" 
d="M616 0h-348v737h-237v287h237v336h348v-336h238v-287h-238v-737z" />
    <glyph glyph-name="u" unicode="u" horiz-adv-x="1146" 
d="M707 408v616h348v-582q0 -131 -49 -229q-56 -114 -167 -176t-266 -62q-154 0 -264 59t-166 167q-51 102 -51 231v592h348v-616q0 -41 13 -78q32 -82 120 -82q87 0 119 78q15 35 15 82z" />
    <glyph glyph-name="v" unicode="v" horiz-adv-x="1126" 
d="M745 0h-364l-369 1024h348l203 -711l203 711h348z" />
    <glyph glyph-name="w" unicode="w" horiz-adv-x="1550" 
d="M1294 0h-372l-146 678l-147 -678h-373l-236 1024h328l117 -678h2l143 678h330l143 -678h2l117 678h328z" />
    <glyph glyph-name="x" unicode="x" horiz-adv-x="1128" 
d="M1149 0h-397l-189 319l-186 -319h-397l360 520l-336 504h404l155 -299l158 299h403l-336 -504z" />
    <glyph glyph-name="y" unicode="y" horiz-adv-x="1122" 
d="M596 -432h-313l155 446l-428 1010h348l228 -616l178 616h348l-358 -1004z" />
    <glyph glyph-name="z" unicode="z" horiz-adv-x="1077" 
d="M1018 0h-991v4l475 733h-432v287h956v-4l-475 -733h467v-287z" />
    <glyph glyph-name="braceleft" unicode="{" horiz-adv-x="917" 
d="M877 -412h-228q-190 0 -289.5 95.5t-99.5 302.5v362q0 95 -31 132.5t-114 37.5h-74v221h74q83 0 114 37.5t31 132.5v363q0 206 99 301.5t290 95.5h228v-223h-148q-75 0 -110 -37.5t-35 -112.5v-366q0 -119 -50 -194.5t-180 -104.5v-4q130 -29 180 -104.5t50 -194.5v-367
q0 -75 35 -112t110 -37h148v-224z" />
    <glyph glyph-name="bar" unicode="|" horiz-adv-x="512" 
d="M399 -410h-286v2110h286v-2110z" />
    <glyph glyph-name="braceright" unicode="}" horiz-adv-x="917" 
d="M268 -412h-227v224h147q146 0 146 149v367q0 120 49.5 195t179.5 104v4q-130 29 -179.5 104t-49.5 195v366q0 150 -146 150h-147v223h227q191 0 290 -95.5t99 -301.5v-363q0 -95 31 -132.5t115 -37.5h74v-221h-74q-84 0 -115 -37.5t-31 -132.5v-362q0 -207 -99.5 -302.5
t-289.5 -95.5z" />
    <glyph glyph-name="asciitilde" unicode="~" horiz-adv-x="1243" 
d="M995 946l197 -86q-39 -168 -129 -255t-213 -87q-56 0 -109.5 18.5t-94.5 45t-79 53t-79.5 45t-79.5 18.5q-116 0 -160 -176l-197 86q39 168 129 255t213 87q56 0 109.5 -18.5t94.5 -45t79.5 -53t80 -45t79.5 -18.5q115 0 159 176z" />
    <glyph glyph-name="DEL" horiz-adv-x="0" 
 />
    <glyph glyph-name="uni00A0" unicode="&#xa0;" horiz-adv-x="471" 
 />
    <glyph glyph-name="exclamdown" unicode="&#xa1;" horiz-adv-x="569" 
d="M139 524h291l51 -921h-393zM285 1049q83 0 140.5 -58.5t57.5 -142.5t-57.5 -142.5t-140.5 -58.5t-141 59t-58 142t58 142t141 59z" />
    <glyph glyph-name="cent" unicode="&#xa2;" horiz-adv-x="1036" 
d="M715 -188h-129v186q-150 7 -267.5 78t-182 190.5t-64.5 265.5t64.5 265.5t182 191t267.5 78.5v186h129v-192q125 -16 258 -82v-270q-141 84 -258 96v-547q125 16 258 98v-270q-122 -64 -258 -84v-190zM586 264v537q-95 -22 -147 -92.5t-52 -176.5t52 -177t147 -91z" />
    <glyph glyph-name="sterling" unicode="&#xa3;" horiz-adv-x="1208" 
d="M1147 0h-1008v287h11q96 0 142 55t46 141q0 54 -27 127h-270v248h172q-31 95 -31 180q0 89 27 161t73 119.5t109.5 79.5t133.5 46t149 14q226 0 446 -96v-299q-222 111 -401 111q-221 0 -221 -164q0 -76 37 -152h411v-248h-303q8 -50 8 -80q0 -72 -36.5 -135.5
t-102.5 -107.5h635v-287z" />
    <glyph glyph-name="yen" unicode="&#xa5;" horiz-adv-x="1474" 
d="M1348 276h-435v-276h-352v276h-434v185h434v141h-434v195h322l-418 637h415l289 -498h4l289 498h416l-420 -637h324v-195h-435v-141h435v-185z" />
    <glyph glyph-name="brokenbar" unicode="&#xa6;" horiz-adv-x="512" 
d="M399 778h-286v922h286v-922zM399 -410h-286v902h286v-902z" />
    <glyph glyph-name="section" unicode="&#xa7;" horiz-adv-x="1155" 
d="M188 -117v240q198 -88 375 -88q187 0 187 96q0 36 -29 62.5t-70.5 41t-111.5 29.5q-54 12 -90.5 21.5t-89 26.5t-87.5 34t-74 42.5t-62 55t-38.5 69t-15.5 85.5q0 94 55 162.5t154 109.5q-166 102 -166 275q0 82 38 144t102.5 98t141 53.5t162.5 17.5q207 0 400 -78v-239
q-201 88 -375 88q-186 0 -186 -96q0 -53 51.5 -82t156.5 -52q55 -13 91 -22t88.5 -26t87.5 -33.5t74 -42.5t62 -55t38.5 -68.5t15.5 -85.5q0 -95 -56 -164t-155 -109q168 -103 168 -274q0 -82 -38 -144.5t-102.5 -98.5t-141 -53.5t-162.5 -17.5q-208 0 -398 78zM580 772
q-97 6 -158.5 -35t-61.5 -100q0 -54 52 -87t161 -58q99 -7 160.5 34t61.5 101q0 53 -52.5 86t-162.5 59z" />
    <glyph glyph-name="dieresis" unicode="&#xa8;" horiz-adv-x="1026" 
d="M459 1317q0 -65 -46.5 -109.5t-113.5 -44.5t-113.5 44.5t-46.5 109.5t46.5 109t113.5 44t113.5 -44t46.5 -109zM887 1317q0 -65 -46.5 -109.5t-113.5 -44.5t-113.5 44.5t-46.5 109.5t46.5 109t113.5 44t113.5 -44t46.5 -109z" />
    <glyph glyph-name="copyright" unicode="&#xa9;" horiz-adv-x="1662" 
d="M831 -25q-152 0 -289 58.5t-235.5 157.5t-156.5 236.5t-58 289.5t58 289t156.5 236t235.5 157.5t289 58.5t289 -58.5t236 -157.5t157 -236t58 -289q0 -203 -98.5 -373.5t-268.5 -269.5t-373 -99zM831 98q125 0 237.5 48.5t194 131t129.5 197.5t48 242t-48 242t-129.5 197
t-194 130.5t-237.5 48.5t-237.5 -48.5t-193.5 -130.5t-129 -197t-48 -242q0 -170 81 -312.5t221 -224.5t306 -82zM1157 582v-226q-142 -71 -285 -71q-193 0 -316.5 123t-123.5 309t123.5 309t316.5 123q141 0 285 -72v-225q-128 78 -239 78q-102 0 -159 -57.5t-57 -155.5
t57 -155.5t159 -57.5q111 0 239 78z" />
    <glyph glyph-name="ordfeminine" unicode="&#xaa;" horiz-adv-x="819" 
d="M332 762q-129 0 -205 95t-76 241t76 241t205 95q122 0 186 -76v61h230v-643h-230v62q-64 -76 -186 -76zM399 954q47 0 78 39.5t31 104.5t-31 104t-78 39t-77.5 -39t-30.5 -104t30.5 -104.5t77.5 -39.5z" />
    <glyph glyph-name="guillemotleft" unicode="&#xab;" horiz-adv-x="944" 
d="M473 39h-4l-408 401v178l408 402h4v-262l-213 -230l213 -227v-262zM883 39h-4l-408 401v178l408 402h4v-262l-213 -230l213 -227v-262z" />
    <glyph glyph-name="logicalnot" unicode="&#xac;" horiz-adv-x="1380" 
d="M1278 287h-258v510h-979v258h1237v-768z" />
    <glyph glyph-name="registered" unicode="&#xae;" horiz-adv-x="1208" 
d="M1143 922q0 -227 -156 -382t-383 -155t-382.5 155t-155.5 382t155.5 381.5t382.5 154.5q149 0 273 -70.5t195 -193.5t71 -272zM872 633h-163l-99 211h-73v-211h-144v573h225q62 0 111 -18q113 -42 113 -162q0 -61 -37 -104q-24 -31 -57 -48zM537 961h73q37 0 62.5 16
t25.5 51q0 64 -88 64h-73v-131zM604 487q180 0 303 125.5t123 309.5t-123 309t-303 125t-303 -125t-123 -309t123 -309.5t303 -125.5z" />
    <glyph glyph-name="macron" unicode="&#xaf;" horiz-adv-x="1024" 
d="M891 1186h-758v211h758v-211z" />
    <glyph glyph-name="degree" unicode="&#xb0;" horiz-adv-x="733" 
d="M367 825q-128 0 -217 91.5t-89 224.5q0 134 89 225.5t217 91.5t216.5 -91.5t88.5 -225.5q0 -133 -88.5 -224.5t-216.5 -91.5zM367 1016q51 0 83.5 35.5t32.5 89.5q0 56 -32.5 91.5t-83.5 35.5t-84 -36t-33 -91q0 -54 33 -89.5t84 -35.5z" />
    <glyph glyph-name="plusminus" unicode="&#xb1;" horiz-adv-x="1400" 
d="M1319 766h-490v-397h-258v397h-489v258h489v397h258v-397h490v-258zM1319 0h-1237v258h1237v-258z" />
    <glyph glyph-name="twosuperior" unicode="&#xb2;" horiz-adv-x="737" 
d="M662 696h-560v138l273 258q65 59 65 114q0 33 -18 51.5t-53 18.5q-74 0 -86 -111h-203q9 131 85 206t206 75q124 0 205 -64t81 -174q0 -128 -143 -243l-117 -97h265v-172z" />
    <glyph glyph-name="threesuperior" unicode="&#xb3;" horiz-adv-x="731" 
d="M360 997h-55v148h43q47 0 72.5 21.5t25.5 52.5q0 28 -20.5 44.5t-50.5 16.5q-37 0 -61 -25.5t-27 -64.5h-203q3 117 84.5 186.5t212.5 69.5q123 0 202 -56t79 -145q0 -107 -101 -162q121 -58 121 -174q0 -98 -85 -161.5t-212 -63.5q-134 0 -223 73t-90 191h204
q3 -44 33 -71t72 -27q37 0 62.5 21t25.5 53t-28.5 52.5t-80.5 20.5z" />
    <glyph glyph-name="acute" unicode="&#xb4;" horiz-adv-x="1024" 
d="M555 1155h-231l192 354h363v-14z" />
    <glyph glyph-name="mu" unicode="&#xb5;" horiz-adv-x="1167" 
d="M461 -410h-348v1434h348v-616q0 -44 12 -78q32 -82 121 -82q87 0 119 78q14 32 14 82v616h348v-582q0 -131 -49 -229q-55 -111 -163 -174.5t-236 -63.5q-93 0 -166 25v-410z" />
    <glyph glyph-name="paragraph" unicode="&#xb6;" horiz-adv-x="1239" 
d="M1137 -205h-215v1454h-168v-1454h-236v895h-20q-90 0 -165.5 21.5t-134.5 65t-92.5 116.5t-33.5 170t33.5 170t93 116t134.5 64t165 21h639v-1639z" />
    <glyph glyph-name="periodcentered" unicode="&#xb7;" horiz-adv-x="540" 
d="M270 520q-83 0 -140.5 58.5t-57.5 142.5t57.5 142.5t140.5 58.5t141 -59t58 -142t-58 -142t-141 -59z" />
    <glyph glyph-name="cedilla" unicode="&#xb8;" horiz-adv-x="1024" 
d="M338 -473v123q59 -39 121 -39q49 0 74.5 27.5t25.5 66.5q0 41 -29 66.5t-84 25.5q-44 0 -69 -10l-10 8l28 205h115l-10 -100q93 -6 157 -59.5t64 -141.5q0 -89 -67 -150t-165 -61q-84 0 -151 39z" />
    <glyph glyph-name="onesuperior" unicode="&#xb9;" horiz-adv-x="497" 
d="M406 696h-218v555h-145v183h363v-738z" />
    <glyph glyph-name="ordmasculine" unicode="&#xba;" horiz-adv-x="798" 
d="M748 1098q0 -142 -100.5 -239t-248.5 -97t-248 96.5t-100 239.5t100 239.5t248 96.5t248.5 -97t100.5 -239zM399 954q46 0 77.5 40t31.5 104q0 63 -31 103t-78 40q-46 0 -77 -39.5t-31 -103.5t31 -104t77 -40z" />
    <glyph glyph-name="guillemotright" unicode="&#xbb;" horiz-adv-x="944" 
d="M883 440l-408 -401h-4v262l213 227l-213 230v262h4l408 -402v-178zM473 440l-407 -401h-5v262l213 227l-213 230v262h5l407 -402v-178z" />
    <glyph glyph-name="onequarter" unicode="&#xbc;" horiz-adv-x="1409" 
d="M1247 0h-207v143h-358v136l336 456h229v-422h101v-170h-101v-143zM1040 313v195l-135 -195h135zM406 696h-218v555h-145v183h363v-738zM360 0h-190l831 1434h191z" />
    <glyph glyph-name="onehalf" unicode="&#xbd;" horiz-adv-x="1454" 
d="M322 0h-191l832 1434h190zM406 696h-218v555h-145v183h363v-738zM1366 0h-559v137l272 258q66 60 66 115q0 33 -18.5 51.5t-53.5 18.5q-74 0 -86 -111h-203q9 131 85 206t206 75q124 0 205.5 -64.5t81.5 -173.5q0 -129 -143 -244l-117 -96h264v-172z" />
    <glyph glyph-name="threequarters" unicode="&#xbe;" horiz-adv-x="1556" 
d="M360 997h-55v148h43q47 0 72.5 21.5t25.5 52.5q0 28 -20.5 44.5t-50.5 16.5q-37 0 -61 -25.5t-27 -64.5h-203q3 117 84.5 186.5t212.5 69.5q123 0 202 -56t79 -145q0 -107 -101 -162q121 -58 121 -174q0 -98 -85 -161.5t-212 -63.5q-134 0 -223 73t-90 191h204
q3 -44 33 -71t72 -27q37 0 62.5 21t25.5 53t-28.5 52.5t-80.5 20.5zM522 0h-190l831 1434h191zM1393 0h-207v143h-359v136l336 456h230v-422h100v-170h-100v-143zM1186 313v195l-135 -195h135z" />
    <glyph glyph-name="questiondown" unicode="&#xbf;" horiz-adv-x="1009" 
d="M537 1049q83 0 140.5 -58.5t57.5 -142.5t-57.5 -142.5t-140.5 -58.5t-141 59t-58 142t58 142t141 59zM397 522h281v-82q0 -128 -43.5 -204.5t-149.5 -145.5q-55 -37 -81.5 -67t-26.5 -72q0 -45 34.5 -71.5t90.5 -26.5q78 0 121 48t49 136h301q-7 -218 -142 -342.5
t-339 -124.5q-63 0 -124 12t-119 39.5t-101.5 68t-70 102.5t-26.5 138q0 63 19 116.5t55.5 95.5t68.5 69.5t78 58.5q68 46 96.5 94t28.5 117v41z" />
    <glyph glyph-name="Agrave" unicode="&#xc0;" horiz-adv-x="1474" 
d="M1475 0h-394l-104 317h-477l-109 -317h-391l537 1434h401zM891 584l-154 465l-155 -465h309zM903 1544h-231l-324 340v14h363z" />
    <glyph glyph-name="Aacute" unicode="&#xc1;" horiz-adv-x="1474" 
d="M1475 0h-394l-104 317h-477l-109 -317h-391l537 1434h401zM891 584l-154 465l-155 -465h309zM799 1544h-232l193 354h362v-14z" />
    <glyph glyph-name="Acircumflex" unicode="&#xc2;" horiz-adv-x="1474" 
d="M1475 0h-394l-104 317h-477l-109 -317h-391l537 1434h401zM891 584l-154 465l-155 -465h309zM1157 1524h-192l-228 157l-227 -157h-193l320 362h201z" />
    <glyph glyph-name="Atilde" unicode="&#xc3;" horiz-adv-x="1474" 
d="M1475 0h-394l-104 317h-477l-109 -317h-391l537 1434h401zM891 584l-154 465l-155 -465h309zM1016 1880l160 -51q-24 -136 -96 -208.5t-165 -72.5q-49 0 -98 20t-82 43.5t-73 43.5t-74 20q-84 0 -115 -123l-160 52q24 136 95.5 208t164.5 72q49 0 98 -20t82 -43.5
t73.5 -43.5t74.5 -20q84 0 115 123z" />
    <glyph glyph-name="Adieresis" unicode="&#xc4;" horiz-adv-x="1474" 
d="M1475 0h-394l-104 317h-477l-109 -317h-391l537 1434h401zM891 584l-154 465l-155 -465h309zM682 1706q0 -65 -46.5 -109.5t-113.5 -44.5t-113.5 44.5t-46.5 109.5t46.5 109.5t113.5 44.5t113.5 -44.5t46.5 -109.5zM1110 1706q0 -65 -46.5 -109.5t-113.5 -44.5t-113 44.5
t-46 109.5t46 109.5t113 44.5t113.5 -44.5t46.5 -109.5z" />
    <glyph glyph-name="Aring" unicode="&#xc5;" horiz-adv-x="1474" 
d="M1475 0h-394l-104 317h-477l-109 -317h-391l541 1444q-47 41 -74 100t-27 125q0 125 86.5 212t210.5 87t210.5 -87t86.5 -212q0 -67 -27 -126t-75 -99zM891 584l-154 465l-155 -465h309zM737 1536q53 0 89 38t36 95t-36 95t-89 38t-89 -38t-36 -95t36 -95t89 -38z" />
    <glyph glyph-name="AE" unicode="&#xc6;" horiz-adv-x="2142" 
d="M2091 0h-1067v317h-469l-164 -317h-422l787 1434h1335v-312h-692v-235h612v-314h-612v-262h692v-311zM1024 584v538h-66l-274 -538h340z" />
    <glyph glyph-name="Ccedilla" unicode="&#xc7;" horiz-adv-x="1294" 
d="M584 -473v123q59 -39 121 -39q49 0 74.5 27.5t25.5 66.5q0 41 -29 66.5t-84 25.5q-44 0 -69 -10l-11 8l29 205q-249 60 -404 258t-155 459q0 205 98 375t271.5 268t384.5 98q218 0 387 -78v-340q-77 47 -174.5 75t-192.5 28q-179 0 -286 -120t-107 -306t107 -306
t286 -120q95 0 193 27.5t174 74.5v-340q-169 -78 -387 -78q-14 0 -82 5l-9 -80q93 -6 157.5 -59.5t64.5 -141.5q0 -89 -67 -150t-165 -61q-84 0 -151 39z" />
    <glyph glyph-name="Egrave" unicode="&#xc8;" horiz-adv-x="1292" 
d="M1241 0h-1108v1434h1108v-312h-733v-235h653v-314h-653v-262h733v-311zM866 1565h-231l-324 340v14h363z" />
    <glyph glyph-name="Eacute" unicode="&#xc9;" horiz-adv-x="1292" 
d="M1241 0h-1108v1434h1108v-312h-733v-235h653v-314h-653v-262h733v-311zM760 1565h-232l193 354h362v-14z" />
    <glyph glyph-name="Ecircumflex" unicode="&#xca;" horiz-adv-x="1292" 
d="M1241 0h-1108v1434h1108v-312h-733v-235h653v-314h-653v-262h733v-311zM1108 1552h-193l-227 158l-227 -158h-193l320 363h200z" />
    <glyph glyph-name="Edieresis" unicode="&#xcb;" horiz-adv-x="1292" 
d="M1241 0h-1108v1434h1108v-312h-733v-235h653v-314h-653v-262h733v-311zM641 1726q0 -65 -46.5 -109t-113.5 -44t-113 44t-46 109t46 109.5t113 44.5t113.5 -44.5t46.5 -109.5zM1069 1726q0 -65 -46.5 -109t-113.5 -44t-113 44t-46 109t46 109.5t113 44.5t113.5 -44.5
t46.5 -109.5z" />
    <glyph glyph-name="Igrave" unicode="&#xcc;" horiz-adv-x="641" 
d="M508 0h-375v1434h375v-1434zM487 1565h-231l-324 340v14h363z" />
    <glyph glyph-name="Iacute" unicode="&#xcd;" horiz-adv-x="641" 
d="M508 0h-375v1434h375v-1434zM385 1565h-231l192 354h363v-14z" />
    <glyph glyph-name="Icircumflex" unicode="&#xce;" horiz-adv-x="641" 
d="M508 0h-375v1434h375v-1434zM739 1532h-192l-228 158l-227 -158h-192l319 362h201z" />
    <glyph glyph-name="Idieresis" unicode="&#xcf;" horiz-adv-x="641" 
d="M264 1726q0 -65 -46.5 -109t-113.5 -44t-113 44t-46 109t46 109.5t113 44.5t113.5 -44.5t46.5 -109.5zM692 1726q0 -65 -46.5 -109t-113.5 -44t-113 44t-46 109t46 109.5t113 44.5t113.5 -44.5t46.5 -109.5zM508 0h-375v1434h375v-1434z" />
    <glyph glyph-name="Eth" unicode="&#xd0;" horiz-adv-x="1628" 
d="M723 0h-479v639h-213v195h213v600h479q239 0 422 -82q187 -83 294 -244.5t107 -390.5t-107 -390.5t-294 -244.5q-183 -82 -422 -82zM618 309h105q121 0 211 37q110 44 171.5 138.5t61.5 232.5t-61.5 232t-171.5 138q-90 37 -211 37h-105v-290h248v-195h-248v-330z" />
    <glyph glyph-name="Ntilde" unicode="&#xd1;" horiz-adv-x="1548" 
d="M1415 0h-399l-522 846v-846h-361v1434h402l522 -844v844h358v-1434zM1055 1880l159 -51q-24 -136 -95.5 -208.5t-164.5 -72.5q-49 0 -98 20t-82 43.5t-73 43.5t-74 20q-84 0 -115 -123l-160 52q24 136 95.5 208t164.5 72q49 0 98 -20t82 -43.5t73.5 -43.5t74.5 -20
q84 0 115 123z" />
    <glyph glyph-name="Ograve" unicode="&#xd2;" horiz-adv-x="1669" 
d="M1587 717q0 -153 -58.5 -291t-159 -236.5t-239.5 -156.5t-294 -58q-208 0 -381 98t-273 268.5t-100 375.5t100 375t273 268t381 98q207 0 379.5 -98t272 -268t99.5 -375zM836 291q160 0 266 120.5t106 305.5t-106 305.5t-266 120.5q-162 0 -267.5 -120t-105.5 -306
t105.5 -306t267.5 -120zM1026 1565h-231l-324 340v14h363z" />
    <glyph glyph-name="Oacute" unicode="&#xd3;" horiz-adv-x="1669" 
d="M1587 717q0 -153 -58.5 -291t-159 -236.5t-239.5 -156.5t-294 -58q-208 0 -381 98t-273 268.5t-100 375.5t100 375t273 268t381 98q207 0 379.5 -98t272 -268t99.5 -375zM836 291q160 0 266 120.5t106 305.5t-106 305.5t-266 120.5q-162 0 -267.5 -120t-105.5 -306
t105.5 -306t267.5 -120zM877 1565h-232l193 354h362v-14z" />
    <glyph glyph-name="Ocircumflex" unicode="&#xd4;" horiz-adv-x="1669" 
d="M1587 717q0 -153 -58.5 -291t-159 -236.5t-239.5 -156.5t-294 -58q-208 0 -381 98t-273 268.5t-100 375.5t100 375t273 268t381 98q207 0 379.5 -98t272 -268t99.5 -375zM836 291q160 0 266 120.5t106 305.5t-106 305.5t-266 120.5q-162 0 -267.5 -120t-105.5 -306
t105.5 -306t267.5 -120zM1253 1552h-192l-227 158l-228 -158h-192l319 363h201z" />
    <glyph glyph-name="Otilde" unicode="&#xd5;" horiz-adv-x="1669" 
d="M1587 717q0 -153 -58.5 -291t-159 -236.5t-239.5 -156.5t-294 -58q-208 0 -381 98t-273 268.5t-100 375.5t100 375t273 268t381 98q207 0 379.5 -98t272 -268t99.5 -375zM836 291q160 0 266 120.5t106 305.5t-106 305.5t-266 120.5q-162 0 -267.5 -120t-105.5 -306
t105.5 -306t267.5 -120zM1110 1880l160 -51q-24 -136 -95.5 -208.5t-164.5 -72.5q-49 0 -98 20t-82 43.5t-73.5 43.5t-74.5 20q-84 0 -115 -123l-159 52q24 136 95.5 208t164.5 72q49 0 98 -20t82 -43.5t73 -43.5t74 -20q84 0 115 123z" />
    <glyph glyph-name="Odieresis" unicode="&#xd6;" horiz-adv-x="1669" 
d="M1587 717q0 -153 -58.5 -291t-159 -236.5t-239.5 -156.5t-294 -58q-208 0 -381 98t-273 268.5t-100 375.5t100 375t273 268t381 98q207 0 379.5 -98t272 -268t99.5 -375zM836 291q160 0 266 120.5t106 305.5t-106 305.5t-266 120.5q-162 0 -267.5 -120t-105.5 -306
t105.5 -306t267.5 -120zM780 1716q0 -65 -46 -109t-113 -44t-113.5 44t-46.5 109t46.5 109.5t113.5 44.5t113 -44.5t46 -109.5zM1208 1716q0 -65 -46 -109t-113 -44t-113.5 44t-46.5 109t46.5 109.5t113.5 44.5t113 -44.5t46 -109.5z" />
    <glyph glyph-name="multiply" unicode="&#xd7;" horiz-adv-x="1277" 
d="M1049 133l-410 410l-410 -410l-178 178l410 410l-410 409l178 179l410 -410l410 410l178 -179l-410 -409l410 -410z" />
    <glyph glyph-name="Oslash" unicode="&#xd8;" horiz-adv-x="1669" 
d="M328 -25h-215l184 220q-102 102 -158.5 236t-56.5 286q0 205 100 375t273 268t381 98q229 0 417 -123l103 123h215l-191 -227q98 -102 152.5 -234.5t54.5 -279.5q0 -153 -58.5 -291t-159 -236.5t-239.5 -156.5t-294 -58q-224 0 -412 117zM526 469l512 610q-89 64 -202 64
q-162 0 -267.5 -120t-105.5 -306q0 -144 63 -248zM1149 954l-510 -606q88 -57 197 -57q160 0 266 120.5t106 305.5q0 137 -59 237z" />
    <glyph glyph-name="Ugrave" unicode="&#xd9;" horiz-adv-x="1525" 
d="M1026 637v797h377v-803q0 -213 -74 -361q-147 -295 -567 -295q-411 0 -561 287q-78 150 -78 369v803h375v-797q0 -85 14 -145q50 -205 250 -205q203 0 250 202q14 60 14 148zM907 1544h-231l-324 340v14h363z" />
    <glyph glyph-name="Uacute" unicode="&#xda;" horiz-adv-x="1525" 
d="M1026 637v797h377v-803q0 -213 -74 -361q-147 -295 -567 -295q-411 0 -561 287q-78 150 -78 369v803h375v-797q0 -85 14 -145q50 -205 250 -205q203 0 250 202q14 60 14 148zM862 1544h-231l192 354h363v-14z" />
    <glyph glyph-name="Ucircumflex" unicode="&#xdb;" horiz-adv-x="1525" 
d="M1026 637v797h377v-803q0 -213 -74 -361q-147 -295 -567 -295q-411 0 -561 287q-78 150 -78 369v803h375v-797q0 -85 14 -145q50 -205 250 -205q203 0 250 202q14 60 14 148zM1182 1532h-193l-227 158l-227 -158h-193l320 362h200z" />
    <glyph glyph-name="Udieresis" unicode="&#xdc;" horiz-adv-x="1525" 
d="M1026 637v797h377v-803q0 -213 -74 -361q-147 -295 -567 -295q-411 0 -561 287q-78 150 -78 369v803h375v-797q0 -85 14 -145q50 -205 250 -205q203 0 250 202q14 60 14 148zM707 1716q0 -65 -46.5 -109t-113.5 -44t-113.5 44t-46.5 109t46.5 109.5t113.5 44.5
t113.5 -44.5t46.5 -109.5zM1135 1716q0 -65 -46.5 -109t-113.5 -44t-113.5 44t-46.5 109t46.5 109.5t113.5 44.5t113.5 -44.5t46.5 -109.5z" />
    <glyph glyph-name="Yacute" unicode="&#xdd;" horiz-adv-x="1413" 
d="M893 0h-373v586l-551 848h426l310 -539h4l309 539h426l-551 -848v-586zM797 1534h-232l193 354h362v-14z" />
    <glyph glyph-name="Thorn" unicode="&#xde;" horiz-adv-x="1366" 
d="M508 0h-375v1434h375v-230h225q122 0 223.5 -28t180.5 -84.5t123.5 -150.5t44.5 -218q0 -125 -44.5 -219.5t-123.5 -151t-180.5 -84.5t-223.5 -28h-225v-240zM508 549h225q193 0 193 174t-193 174h-225v-348z" />
    <glyph glyph-name="germandbls" unicode="&#xdf;" horiz-adv-x="1363" 
d="M578 -205h-349v942h-188v287h192q19 199 145 316.5t347 117.5q127 0 234 -42.5t173 -125.5t66 -190q0 -100 -56 -184t-157 -123q318 -117 318 -387q0 -197 -141 -320t-357 -123q-69 0 -150 12v275q47 -8 88 -8q104 0 164 52.5t60 145.5q0 205 -312 205v250
q104 0 157.5 44.5t53.5 117.5q0 60 -37.5 96.5t-101.5 36.5q-73 0 -111 -50.5t-38 -146.5v-1198z" />
    <glyph glyph-name="agrave" unicode="&#xe0;" 
d="M1133 0h-328v109q-108 -134 -289 -134q-134 0 -236 71t-155 192t-53 274t53 274t155 192t236 71q160 0 268 -111v86h349v-1024zM606 248q83 0 137 73t54 191t-54 191t-137 73t-136.5 -72.5t-53.5 -191.5t53.5 -191.5t136.5 -72.5zM805 1155h-232l-323 340v14h362z" />
    <glyph glyph-name="aacute" unicode="&#xe1;" 
d="M1133 0h-328v109q-108 -134 -289 -134q-134 0 -236 71t-155 192t-53 274t53 274t155 192t236 71q160 0 268 -111v86h349v-1024zM606 248q83 0 137 73t54 191t-54 191t-137 73t-136.5 -72.5t-53.5 -191.5t53.5 -191.5t136.5 -72.5zM678 1155h-232l193 354h362v-14z" />
    <glyph glyph-name="acircumflex" unicode="&#xe2;" 
d="M1133 0h-328v109q-108 -134 -289 -134q-134 0 -236 71t-155 192t-53 274t53 274t155 192t236 71q160 0 268 -111v86h349v-1024zM606 248q83 0 137 73t54 191t-54 191t-137 73t-136.5 -72.5t-53.5 -191.5t53.5 -191.5t136.5 -72.5zM1053 1143h-193l-227 157l-227 -157
h-193l319 362h201z" />
    <glyph glyph-name="atilde" unicode="&#xe3;" 
d="M1133 0h-328v109q-108 -134 -289 -134q-134 0 -236 71t-155 192t-53 274t53 274t155 192t236 71q160 0 268 -111v86h349v-1024zM606 248q83 0 137 73t54 191t-54 191t-137 73t-136.5 -72.5t-53.5 -191.5t53.5 -191.5t136.5 -72.5zM901 1481l160 -51
q-24 -136 -95.5 -208.5t-164.5 -72.5q-49 0 -98 20t-82 43.5t-73.5 43.5t-74.5 20q-84 0 -115 -123l-159 51q24 136 95.5 208.5t164.5 72.5q49 0 98 -20t82 -43.5t73 -43.5t74 -20q84 0 115 123z" />
    <glyph glyph-name="adieresis" unicode="&#xe4;" 
d="M1133 0h-328v109q-108 -134 -289 -134q-134 0 -236 71t-155 192t-53 274t53 274t155 192t236 71q160 0 268 -111v86h349v-1024zM606 248q83 0 137 73t54 191t-54 191t-137 73t-136.5 -72.5t-53.5 -191.5t53.5 -191.5t136.5 -72.5zM563 1317q0 -65 -46.5 -109.5
t-113.5 -44.5t-113 44.5t-46 109.5t46 109t113 44t113.5 -44t46.5 -109zM991 1317q0 -65 -46.5 -109.5t-113.5 -44.5t-113 44.5t-46 109.5t46 109t113 44t113.5 -44t46.5 -109z" />
    <glyph glyph-name="aring" unicode="&#xe5;" 
d="M1133 0h-328v109q-108 -134 -289 -134q-134 0 -236 71t-155 192t-53 274t53 274t155 192t236 71q160 0 268 -111v86h349v-1024zM606 248q83 0 137 73t54 191t-54 191t-137 73t-136.5 -72.5t-53.5 -191.5t53.5 -191.5t136.5 -72.5zM621 1133q-124 0 -210.5 87t-86.5 212
t86.5 212t210.5 87t210.5 -87t86.5 -212t-86.5 -212t-210.5 -87zM621 1298q53 0 88.5 38.5t35.5 95.5t-35.5 95t-88.5 38t-89 -38t-36 -95t36 -95.5t89 -38.5z" />
    <glyph glyph-name="ae" unicode="&#xe6;" horiz-adv-x="1896" 
d="M1819 436h-717q17 -96 73.5 -146t135.5 -50q123 0 176 112h309q-54 -169 -180 -273t-307 -104q-128 0 -231 53.5t-171 149.5q-75 -92 -185.5 -147.5t-246.5 -55.5q-77 0 -146.5 19.5t-129.5 59t-95.5 110.5t-35.5 164q0 220 198 288q76 27 201 27h311q-20 72 -95.5 111
t-195.5 39q-163 0 -323 -82v258q171 80 362 80q286 0 414 -166q68 79 163.5 122.5t209.5 43.5q148 0 266 -71t182 -190.5t64 -263.5q0 -58 -6 -88zM776 436h-305q-46 0 -76 -10q-65 -21 -65 -94q0 -57 43.5 -85t115.5 -28q107 0 183 57.5t104 159.5zM1110 643h371
q-14 73 -65.5 111.5t-121.5 38.5q-68 0 -117 -38t-67 -112z" />
    <glyph glyph-name="ccedilla" unicode="&#xe7;" horiz-adv-x="1036" 
d="M410 -473v123q59 -39 120 -39q49 0 75 27.5t26 66.5q0 41 -29 66.5t-84 25.5q-44 0 -69 -10l-11 8l27 199q-178 44 -285.5 185.5t-107.5 332.5q0 231 153.5 384t392.5 153q180 0 355 -91v-278q-160 96 -295 96q-123 0 -192.5 -71.5t-69.5 -192.5t69.5 -192.5t192.5 -71.5
q135 0 295 96v-278q-175 -91 -355 -91q-26 0 -38 2l-9 -77q93 -6 157.5 -59.5t64.5 -141.5q0 -89 -67 -150t-165 -61q-84 0 -151 39z" />
    <glyph glyph-name="egrave" unicode="&#xe8;" horiz-adv-x="1183" 
d="M1106 436h-717q16 -95 73 -145.5t132 -50.5q127 0 180 112h309q-56 -171 -180.5 -274t-312.5 -103q-143 0 -261.5 70t-187.5 193.5t-69 273.5q0 113 40.5 212.5t111 170.5t168.5 112.5t208 41.5q148 0 266 -71t182 -190.5t64 -263.5q0 -58 -6 -88zM397 643h371
q-14 73 -65 111.5t-121 38.5q-68 0 -117.5 -38t-67.5 -112zM768 1155h-231l-324 340v14h362z" />
    <glyph glyph-name="eacute" unicode="&#xe9;" horiz-adv-x="1183" 
d="M1106 436h-717q16 -95 73 -145.5t132 -50.5q127 0 180 112h309q-56 -171 -180.5 -274t-312.5 -103q-143 0 -261.5 70t-187.5 193.5t-69 273.5q0 113 40.5 212.5t111 170.5t168.5 112.5t208 41.5q148 0 266 -71t182 -190.5t64 -263.5q0 -58 -6 -88zM397 643h371
q-14 73 -65 111.5t-121 38.5q-68 0 -117.5 -38t-67.5 -112zM700 1155h-231l193 354h362v-14z" />
    <glyph glyph-name="ecircumflex" unicode="&#xea;" horiz-adv-x="1183" 
d="M1106 436h-717q16 -95 73 -145.5t132 -50.5q127 0 180 112h309q-56 -171 -180.5 -274t-312.5 -103q-143 0 -261.5 70t-187.5 193.5t-69 273.5q0 113 40.5 212.5t111 170.5t168.5 112.5t208 41.5q148 0 266 -71t182 -190.5t64 -263.5q0 -58 -6 -88zM397 643h371
q-14 73 -65 111.5t-121 38.5q-68 0 -117.5 -38t-67.5 -112zM1012 1143h-193l-227 157l-227 -157h-193l320 362h200z" />
    <glyph glyph-name="edieresis" unicode="&#xeb;" horiz-adv-x="1183" 
d="M1106 436h-717q16 -95 73 -145.5t132 -50.5q127 0 180 112h309q-56 -171 -180.5 -274t-312.5 -103q-143 0 -261.5 70t-187.5 193.5t-69 273.5q0 113 40.5 212.5t111 170.5t168.5 112.5t208 41.5q148 0 266 -71t182 -190.5t64 -263.5q0 -58 -6 -88zM397 643h371
q-14 73 -65 111.5t-121 38.5q-68 0 -117.5 -38t-67.5 -112zM551 1317q0 -65 -46.5 -109.5t-113.5 -44.5t-113.5 44.5t-46.5 109.5t46.5 109t113.5 44t113.5 -44t46.5 -109zM979 1317q0 -65 -46.5 -109.5t-113.5 -44.5t-113.5 44.5t-46.5 109.5t46.5 109t113.5 44t113.5 -44
t46.5 -109z" />
    <glyph glyph-name="igrave" unicode="&#xec;" horiz-adv-x="552" 
d="M451 0h-349v1024h349v-1024zM430 1155h-231l-324 340v14h363z" />
    <glyph glyph-name="iacute" unicode="&#xed;" horiz-adv-x="552" 
d="M451 0h-349v1024h349v-1024zM365 1155h-232l193 354h362v-14z" />
    <glyph glyph-name="icircumflex" unicode="&#xee;" horiz-adv-x="552" 
d="M451 0h-349v1024h349v-1024zM696 1143h-192l-228 157l-227 -157h-192l319 362h201z" />
    <glyph glyph-name="idieresis" unicode="&#xef;" horiz-adv-x="552" 
d="M223 1317q0 -65 -46.5 -109.5t-113.5 -44.5t-113 44.5t-46 109.5t46 109t113 44t113.5 -44t46.5 -109zM651 1317q0 -65 -46 -109.5t-113 -44.5t-113.5 44.5t-46.5 109.5t46.5 109t113.5 44t113 -44t46 -109zM451 0h-349v1024h349v-1024z" />
    <glyph glyph-name="eth" unicode="&#xf0;" horiz-adv-x="1198" 
d="M543 1044l-99 134l-139 -95l-55 80l137 92l-94 129l244 164l92 -131l139 92l55 -79l-137 -93l281 -397q45 -65 68.5 -103t50 -92.5t37 -110t10.5 -122.5q0 -150 -69.5 -273.5t-191.5 -193.5t-270 -70t-269.5 70t-191 193.5t-69.5 273.5q0 172 89 305.5t238 192.5
q71 28 144 34zM602 248q84 0 139.5 73.5t55.5 190.5t-55.5 190.5t-139.5 73.5t-139 -73.5t-55 -190.5t55 -190.5t139 -73.5z" />
    <glyph glyph-name="ntilde" unicode="&#xf1;" horiz-adv-x="1214" 
d="M1122 0h-348v573q0 74 -10 105q-28 98 -133 98q-88 0 -134 -64.5t-46 -179.5v-532h-349v1024h328v-139q134 164 332 164q126 0 209.5 -59t120.5 -169q30 -88 30 -248v-573zM872 1470l160 -51q-24 -136 -95.5 -208t-164.5 -72q-49 0 -98 20t-82 43.5t-73.5 43.5t-74.5 20
q-83 0 -114 -123l-160 51q24 136 95.5 208.5t164.5 72.5q49 0 98 -20t82 -43.5t73.5 -43.5t74.5 -20q83 0 114 122z" />
    <glyph glyph-name="ograve" unicode="&#xf2;" horiz-adv-x="1204" 
d="M602 -25q-148 0 -269.5 70t-191 193.5t-69.5 273.5t69.5 273.5t191 193.5t269.5 70t270 -70t191.5 -193.5t69.5 -273.5t-69.5 -273.5t-191.5 -193.5t-270 -70zM602 248q83 0 137 73.5t54 190.5t-54 190.5t-137 73.5t-136.5 -73.5t-53.5 -190.5t53.5 -190.5t136.5 -73.5z
M772 1155h-231l-324 340v14h363z" />
    <glyph glyph-name="oacute" unicode="&#xf3;" horiz-adv-x="1204" 
d="M602 -25q-148 0 -269.5 70t-191 193.5t-69.5 273.5t69.5 273.5t191 193.5t269.5 70t270 -70t191.5 -193.5t69.5 -273.5t-69.5 -273.5t-191.5 -193.5t-270 -70zM602 248q83 0 137 73.5t54 190.5t-54 190.5t-137 73.5t-136.5 -73.5t-53.5 -190.5t53.5 -190.5t136.5 -73.5z
M668 1155h-232l193 354h362v-14z" />
    <glyph glyph-name="ocircumflex" unicode="&#xf4;" horiz-adv-x="1204" 
d="M602 -25q-148 0 -269.5 70t-191 193.5t-69.5 273.5t69.5 273.5t191 193.5t269.5 70t270 -70t191.5 -193.5t69.5 -273.5t-69.5 -273.5t-191.5 -193.5t-270 -70zM602 248q83 0 137 73.5t54 190.5t-54 190.5t-137 73.5t-136.5 -73.5t-53.5 -190.5t53.5 -190.5t136.5 -73.5z
M1022 1133h-193l-227 157l-227 -157h-193l320 362h200z" />
    <glyph glyph-name="otilde" unicode="&#xf5;" horiz-adv-x="1204" 
d="M602 -25q-148 0 -269.5 70t-191 193.5t-69.5 273.5t69.5 273.5t191 193.5t269.5 70t270 -70t191.5 -193.5t69.5 -273.5t-69.5 -273.5t-191.5 -193.5t-270 -70zM602 248q83 0 137 73.5t54 190.5t-54 190.5t-137 73.5t-136.5 -73.5t-53.5 -190.5t53.5 -190.5t136.5 -73.5z
M872 1470l160 -51q-24 -136 -95.5 -208t-164.5 -72q-49 0 -98 20t-82 43.5t-73.5 43.5t-74.5 20q-83 0 -114 -123l-160 51q24 136 95.5 208.5t164.5 72.5q49 0 98 -20t82 -43.5t73.5 -43.5t74.5 -20q83 0 114 122z" />
    <glyph glyph-name="odieresis" unicode="&#xf6;" horiz-adv-x="1204" 
d="M602 -25q-148 0 -269.5 70t-191 193.5t-69.5 273.5t69.5 273.5t191 193.5t269.5 70t270 -70t191.5 -193.5t69.5 -273.5t-69.5 -273.5t-191.5 -193.5t-270 -70zM602 248q83 0 137 73.5t54 190.5t-54 190.5t-137 73.5t-136.5 -73.5t-53.5 -190.5t53.5 -190.5t136.5 -73.5z
M549 1317q0 -65 -46.5 -109.5t-113.5 -44.5t-113.5 44.5t-46.5 109.5t46.5 109t113.5 44t113.5 -44t46.5 -109zM977 1317q0 -65 -46.5 -109.5t-113.5 -44.5t-113.5 44.5t-46.5 109.5t46.5 109t113.5 44t113.5 -44t46.5 -109z" />
    <glyph glyph-name="divide" unicode="&#xf7;" horiz-adv-x="1298" 
d="M649 113q-72 0 -124 52t-52 124q0 71 52 123.5t124 52.5q71 0 123.5 -52.5t52.5 -123.5q0 -72 -52.5 -124t-123.5 -52zM1227 592h-1155v258h1155v-258zM649 983q-72 0 -124 52t-52 124q0 71 52 123.5t124 52.5q71 0 123.5 -52.5t52.5 -123.5q0 -72 -52.5 -124t-123.5 -52
z" />
    <glyph glyph-name="oslash" unicode="&#xf8;" horiz-adv-x="1214" 
d="M268 -25h-174l127 156q-149 152 -149 381q0 150 69.5 273.5t191 193.5t269.5 70q161 0 295 -88l72 88h174l-144 -177q134 -150 134 -360q0 -150 -69.5 -273.5t-191.5 -193.5t-270 -70q-155 0 -274 72zM784 608l-272 -334q39 -26 90 -26q84 0 139.5 73.5t55.5 190.5
q0 49 -13 96zM428 385l285 348q-49 43 -111 43q-84 0 -139 -73.5t-55 -190.5q0 -74 20 -127z" />
    <glyph glyph-name="ugrave" unicode="&#xf9;" horiz-adv-x="1146" 
d="M707 408v616h348v-582q0 -131 -49 -229q-56 -114 -167 -176t-266 -62q-154 0 -264 59t-166 167q-51 102 -51 231v592h348v-616q0 -41 13 -78q32 -82 120 -82q87 0 119 78q15 35 15 82zM721 1155h-232l-323 340v14h362z" />
    <glyph glyph-name="uacute" unicode="&#xfa;" horiz-adv-x="1146" 
d="M707 408v616h348v-582q0 -131 -49 -229q-56 -114 -167 -176t-266 -62q-154 0 -264 59t-166 167q-51 102 -51 231v592h348v-616q0 -41 13 -78q32 -82 120 -82q87 0 119 78q15 35 15 82zM662 1155h-232l193 354h362v-14z" />
    <glyph glyph-name="ucircumflex" unicode="&#xfb;" horiz-adv-x="1146" 
d="M707 408v616h348v-582q0 -131 -49 -229q-56 -114 -167 -176t-266 -62q-154 0 -264 59t-166 167q-51 102 -51 231v592h348v-616q0 -41 13 -78q32 -82 120 -82q87 0 119 78q15 35 15 82zM993 1143h-192l-228 157l-227 -157h-192l319 362h201z" />
    <glyph glyph-name="udieresis" unicode="&#xfc;" horiz-adv-x="1146" 
d="M707 408v616h348v-582q0 -131 -49 -229q-56 -114 -167 -176t-266 -62q-154 0 -264 59t-166 167q-51 102 -51 231v592h348v-616q0 -41 13 -78q32 -82 120 -82q87 0 119 78q15 35 15 82zM520 1307q0 -65 -46.5 -109.5t-113.5 -44.5t-113 44.5t-46 109.5t46 109t113 44
t113.5 -44t46.5 -109zM948 1307q0 -65 -46.5 -109.5t-113.5 -44.5t-113 44.5t-46 109.5t46 109t113 44t113.5 -44t46.5 -109z" />
    <glyph glyph-name="yacute" unicode="&#xfd;" horiz-adv-x="1122" 
d="M596 -432h-313l155 446l-428 1010h348l228 -616l178 616h348l-358 -1004zM672 1145h-232l193 354h362v-14z" />
    <glyph glyph-name="thorn" unicode="&#xfe;" 
d="M451 -410h-349v1844h349v-496q108 111 268 111q134 0 236 -71t155 -192t53 -274t-53 -274t-155 -192t-236 -71q-160 0 -268 111v-496zM629 248q83 0 136.5 72.5t53.5 191.5t-53.5 191.5t-136.5 72.5t-137 -73t-54 -191t54 -191t137 -73z" />
    <glyph glyph-name="ydieresis" unicode="&#xff;" horiz-adv-x="1122" 
d="M596 -432h-313l155 446l-428 1010h348l228 -616l178 616h348l-358 -1004zM530 1296q0 -65 -46 -109t-113 -44t-113.5 44t-46.5 109t46.5 109.5t113.5 44.5t113 -44.5t46 -109.5zM958 1296q0 -65 -46 -109t-113 -44t-113.5 44t-46.5 109t46.5 109.5t113.5 44.5t113 -44.5
t46 -109.5z" />
    <glyph glyph-name="dotlessi" unicode="&#x131;" horiz-adv-x="552" 
d="M451 0h-349v1024h349v-1024z" />
    <glyph glyph-name="Lslash" unicode="&#x141;" horiz-adv-x="1409" 
d="M1358 0h-1114v500l-213 -107v215l213 107v719h374v-531l310 156v-215l-310 -156v-377h740v-311z" />
    <glyph glyph-name="lslash" unicode="&#x142;" horiz-adv-x="835" 
d="M592 0h-348v520l-213 -106v215l213 106v699h348v-525l213 107v-215l-213 -107v-694z" />
    <glyph glyph-name="OE" unicode="&#x152;" horiz-adv-x="2127" 
d="M2077 0h-1172q-138 0 -260 27t-225.5 84.5t-178.5 141t-117 202.5t-42 262q0 138 42 255t117 201.5t178.5 143.5t226 88t259.5 29h1172v-312h-693v-235h613v-314h-613v-262h693v-311zM1010 309v815h-105q-92 0 -171.5 -25.5t-141 -74.5t-96.5 -128t-35 -179
q0 -190 122 -299t322 -109h105z" />
    <glyph glyph-name="oe" unicode="&#x153;" horiz-adv-x="1902" 
d="M1831 436h-717q16 -95 73 -145.5t132 -50.5q127 0 180 112h309q-56 -171 -180.5 -274t-312.5 -103q-214 0 -352 154q-138 -154 -361 -154q-148 0 -269.5 70t-191 193.5t-69.5 273.5t69.5 273.5t191 193.5t269.5 70q223 0 363 -156q140 156 360 156q148 0 266 -71
t182 -190.5t64 -263.5q0 -58 -6 -88zM602 248q84 0 139.5 73.5t55.5 190.5t-55.5 190.5t-139.5 73.5t-139 -73.5t-55 -190.5t55 -190.5t139 -73.5zM1122 643h371q-14 73 -65.5 111.5t-120.5 38.5q-68 0 -117.5 -38t-67.5 -112z" />
    <glyph glyph-name="Scaron" unicode="&#x160;" horiz-adv-x="1265" 
d="M92 102v340q130 -88 248.5 -125.5t255.5 -37.5q114 0 174.5 38.5t60.5 112.5q0 68 -55.5 103t-165.5 63q-96 21 -167 43.5t-141 59t-114 83.5t-71 115.5t-27 155.5q0 86 28.5 155.5t76.5 115.5t115 76.5t140 44t154 13.5q261 0 502 -100v-338q-139 70 -268.5 102.5
t-214.5 32.5q-76 0 -119 -25.5t-43 -76.5q0 -59 52 -91t179 -61q86 -20 151.5 -41.5t136.5 -58.5t117.5 -83.5t76.5 -116t30 -155.5q0 -146 -79.5 -254.5t-209.5 -162.5t-292 -54q-285 0 -531 127zM715 1552h-201l-319 363h192l227 -158l228 158h192z" />
    <glyph glyph-name="scaron" unicode="&#x161;" horiz-adv-x="997" 
d="M78 76v274q199 -117 385 -117q83 0 127.5 23t44.5 61q0 23 -12.5 38t-43 25.5t-56 15t-77.5 12.5q-370 57 -370 325q0 70 24.5 125.5t64 90.5t94 58t110.5 32.5t118 9.5q210 0 394 -78v-269q-98 44 -202 66.5t-173 22.5q-127 0 -127 -62q0 -35 38 -53t132 -37
q67 -13 114 -26t103.5 -38t91 -57t58.5 -83.5t24 -117.5q0 -164 -128 -253t-331 -89q-219 0 -403 101zM598 1143h-201l-319 362h192l228 -157l227 157h193z" />
    <glyph glyph-name="Ydieresis" unicode="&#x178;" horiz-adv-x="1413" 
d="M893 0h-373v586l-551 848h426l310 -539h4l309 539h426l-551 -848v-586zM653 1696q0 -65 -46 -109.5t-113 -44.5t-113.5 44.5t-46.5 109.5t46.5 109t113.5 44t113 -44t46 -109zM1081 1696q0 -65 -46 -109.5t-113 -44.5t-113.5 44.5t-46.5 109.5t46.5 109t113.5 44t113 -44
t46 -109z" />
    <glyph glyph-name="Zcaron" unicode="&#x17d;" horiz-adv-x="1376" 
d="M1325 0h-1292v4l669 1118h-634v312h1255v-4l-668 -1119h670v-311zM772 1552h-201l-319 363h192l228 -158l227 158h193z" />
    <glyph glyph-name="zcaron" unicode="&#x17e;" horiz-adv-x="1077" 
d="M1018 0h-991v4l475 733h-432v287h956v-4l-475 -733h467v-287zM633 1143h-201l-319 362h192l227 -157l228 157h192z" />
    <glyph glyph-name="florin" unicode="&#x192;" horiz-adv-x="937" 
d="M-41 -410l31 289q90 0 136.5 36.5t55.5 119.5l74 702h-197l31 287h195l6 53q50 432 448 432q101 0 189 -18l-27 -270q-60 10 -108 10q-70 0 -112 -28.5t-50 -106.5l-10 -72h256l-31 -287h-254l-74 -704q-16 -150 -74 -245t-177.5 -146.5t-307.5 -51.5z" />
    <glyph glyph-name="circumflex" unicode="&#x2c6;" horiz-adv-x="1024" 
d="M932 1143h-193l-227 157l-227 -157h-193l320 362h200z" />
    <glyph glyph-name="caron" unicode="&#x2c7;" horiz-adv-x="1024" 
d="M612 1143h-200l-320 362h193l227 -157l227 157h193z" />
    <glyph glyph-name="breve" unicode="&#x2d8;" horiz-adv-x="1024" 
d="M674 1475h192q-5 -150 -104 -252.5t-250 -102.5t-250 102.5t-104 252.5h192q3 -74 46 -121t116 -47t116 47t46 121z" />
    <glyph glyph-name="dotaccent" unicode="&#x2d9;" horiz-adv-x="1024" 
d="M672 1296q0 -65 -46.5 -109t-113.5 -44t-113.5 44t-46.5 109t46.5 109.5t113.5 44.5t113.5 -44.5t46.5 -109.5z" />
    <glyph glyph-name="ring" unicode="&#x2da;" horiz-adv-x="1024" 
d="M512 1071q-124 0 -210.5 87t-86.5 212t86.5 212t210.5 87t210.5 -87t86.5 -212t-86.5 -212t-210.5 -87zM512 1237q53 0 89 38t36 95t-36 95t-89 38t-89 -38t-36 -95t36 -95t89 -38z" />
    <glyph glyph-name="ogonek" unicode="&#x2db;" horiz-adv-x="1024" 
d="M686 -344v-117q-74 -33 -158 -33q-107 0 -172 55t-67 142q-1 90 67 165t189 132l114 -39q-206 -118 -206 -235q0 -46 29.5 -71.5t80.5 -25.5q64 0 123 27z" />
    <glyph glyph-name="tilde" unicode="&#x2dc;" horiz-adv-x="1024" 
d="M784 1470l160 -51q-24 -136 -95.5 -208t-164.5 -72q-49 0 -98 20t-82 43.5t-73.5 43.5t-74.5 20q-83 0 -114 -123l-160 51q24 136 95.5 208.5t164.5 72.5q49 0 98 -20t82 -43.5t73.5 -43.5t74.5 -20q83 0 114 122z" />
    <glyph glyph-name="hungarumlaut" unicode="&#x2dd;" horiz-adv-x="1024" 
d="M369 1135h-211l141 354h311v-14zM788 1135h-210l141 354h311v-14z" />
    <glyph glyph-name="pi" unicode="&#x3c0;" horiz-adv-x="1437" 
d="M1341 268v-278q-139 0 -237.5 31.5t-153.5 91.5t-79.5 135.5t-24.5 173.5v315h-266v-737h-349v737h-190v287h1352v-287h-199v-334q0 -78 38.5 -106.5t108.5 -28.5z" />
    <glyph glyph-name="endash" unicode="&#x2013;" horiz-adv-x="1114" 
d="M1042 592h-970v258h970v-258z" />
    <glyph glyph-name="emdash" unicode="&#x2014;" horiz-adv-x="1441" 
d="M1370 592h-1298v258h1298v-258z" />
    <glyph glyph-name="quoteleft" unicode="&#x2018;" horiz-adv-x="540" 
d="M426 1434l-131 -254q75 -7 124.5 -64.5t49.5 -134.5q0 -83 -58 -142t-141 -59t-140.5 57.5t-57.5 139.5q0 78 61 194l137 263h156z" />
    <glyph glyph-name="quoteright" unicode="&#x2019;" horiz-adv-x="522" 
d="M270 780h-155l131 254q-75 7 -124.5 64.5t-49.5 134.5q0 84 57.5 142.5t140.5 58.5t141 -57.5t58 -139.5q0 -79 -61 -195z" />
    <glyph glyph-name="quotesinglbase" unicode="&#x201a;" horiz-adv-x="540" 
d="M270 -264h-155l131 254q-75 7 -124.5 64t-49.5 134q0 84 57.5 142.5t140.5 58.5t141 -57t58 -139q0 -79 -61 -195z" />
    <glyph glyph-name="quotedblleft" unicode="&#x201c;" horiz-adv-x="1015" 
d="M426 1434l-131 -254q75 -7 124.5 -64.5t49.5 -134.5q0 -83 -58 -142t-141 -59t-140.5 57.5t-57.5 139.5q0 78 61 194l137 263h156zM901 1434l-131 -254q75 -7 124.5 -64.5t49.5 -134.5q0 -83 -58 -142t-141 -59t-140.5 57.5t-57.5 139.5q0 78 61 194l137 263h156z" />
    <glyph glyph-name="quotedblright" unicode="&#x201d;" horiz-adv-x="1001" 
d="M745 780h-155l131 254q-75 7 -124.5 64.5t-49.5 134.5q0 84 57.5 142.5t140.5 58.5t141 -57.5t58 -139.5q0 -79 -61 -195zM270 780h-155l131 254q-75 7 -124.5 64.5t-49.5 134.5q0 84 57.5 142.5t140.5 58.5t141 -57.5t58 -139.5q0 -79 -61 -195z" />
    <glyph glyph-name="quotedblbase" unicode="&#x201e;" horiz-adv-x="1015" 
d="M745 -264h-155l131 254q-75 7 -124.5 64t-49.5 134q0 84 57.5 142.5t140.5 58.5t141 -57t58 -139q0 -79 -61 -195zM270 -264h-155l131 254q-75 7 -124.5 64t-49.5 134q0 84 57.5 142.5t140.5 58.5t141 -57t58 -139q0 -79 -61 -195z" />
    <glyph glyph-name="dagger" unicode="&#x2020;" horiz-adv-x="1175" 
d="M717 -295h-258v1063h-408v258h408v432h258v-432h407v-258h-407v-1063z" />
    <glyph glyph-name="daggerdbl" unicode="&#x2021;" horiz-adv-x="1236" 
d="M748 -315h-259v432h-407v258h407v393h-407v258h407v432h259v-432h407v-258h-407v-393h407v-258h-407v-432z" />
    <glyph glyph-name="bullet" unicode="&#x2022;" horiz-adv-x="593" 
d="M297 498q-94 0 -159.5 65.5t-65.5 159.5t65.5 159.5t159.5 65.5t159.5 -65.5t65.5 -159.5t-65.5 -159.5t-159.5 -65.5z" />
    <glyph glyph-name="ellipsis" unicode="&#x2026;" horiz-adv-x="1622" 
d="M270 -12q-83 0 -140.5 58.5t-57.5 141.5q0 84 57.5 142.5t140.5 58.5t141 -59t58 -142t-58 -141.5t-141 -58.5zM811 -12q-83 0 -141 58.5t-58 141.5t58 142t141 59t141 -59t58 -142t-58 -141.5t-141 -58.5zM1352 -12q-83 0 -141 58.5t-58 141.5t58 142t141 59
t140.5 -58.5t57.5 -142.5q0 -83 -57.5 -141.5t-140.5 -58.5z" />
    <glyph glyph-name="perthousand" unicode="&#x2030;" horiz-adv-x="2291" 
d="M459 0h-240l873 1434h239zM723 1126q0 -137 -96.5 -233t-235.5 -96t-234.5 96t-95.5 233t95.5 234.5t234.5 97.5t235.5 -97.5t96.5 -234.5zM391 993q54 0 88.5 38t34.5 95q0 58 -35 97t-88 39t-87 -39t-34 -97t34 -95.5t87 -37.5zM1489 305q0 -137 -96.5 -233.5
t-235.5 -96.5t-234.5 96.5t-95.5 233.5t95.5 234.5t234.5 97.5t235.5 -97.5t96.5 -234.5zM1157 172q54 0 88.5 38t34.5 95q0 58 -34.5 96.5t-88.5 38.5q-53 0 -87 -38.5t-34 -96.5t34 -95.5t87 -37.5zM2230 305q0 -137 -96.5 -233.5t-235.5 -96.5t-234 96.5t-95 233.5
t95 234.5t234 97.5t235.5 -97.5t96.5 -234.5zM1898 172q54 0 88.5 38t34.5 95q0 58 -34.5 96.5t-88.5 38.5q-53 0 -86.5 -38.5t-33.5 -96.5t33.5 -95.5t86.5 -37.5z" />
    <glyph glyph-name="guilsinglleft" unicode="&#x2039;" horiz-adv-x="534" 
d="M473 39h-4l-408 401v178l408 402h4v-262l-213 -230l213 -227v-262z" />
    <glyph glyph-name="guilsinglright" unicode="&#x203a;" horiz-adv-x="534" 
d="M473 440l-407 -401h-5v262l213 227l-213 230v262h5l407 -402v-178z" />
    <glyph glyph-name="fraction" unicode="&#x2044;" horiz-adv-x="968" 
d="M178 0h-260l873 1434h260z" />
    <glyph glyph-name="Euro" unicode="&#x20ac;" horiz-adv-x="1497" 
d="M1427 365l-2 -312q-169 -78 -387 -78q-253 0 -446 138t-268 362h-252v156h217q-4 27 -4 86q0 43 2 63h-215v166h247q72 228 267 370t452 142q218 0 387 -78l2 -311q-81 48 -185.5 76.5t-207.5 28.5q-127 0 -223 -61t-147 -167h505v-166h-551q-4 -40 -4 -63q0 -39 7 -86
h548v-156h-499q52 -101 145.5 -158t218.5 -57q103 0 207.5 28.5t185.5 76.5z" />
    <glyph glyph-name="trademark" unicode="&#x2122;" horiz-adv-x="1411" 
d="M406 827h-166v455h-195v152h555v-152h-194v-455zM1325 827h-145v383l-189 -368l-188 368v-383h-146v607h195l139 -283l139 283h195v-607z" />
    <glyph glyph-name="Omega" unicode="&#x2126;" horiz-adv-x="1540" 
d="M1468 0h-628v424q239 176 239 426q0 137 -82.5 220t-226.5 83t-226.5 -83t-82.5 -220q0 -250 239 -426v-424h-628v311h360v11q-348 220 -348 579q0 113 46.5 213.5t132 177t217 121.5t290.5 45t290.5 -45t217 -121.5t132 -177t46.5 -213.5q0 -359 -348 -579v-11h360v-311
z" />
    <glyph glyph-name="partialdiff" unicode="&#x2202;" horiz-adv-x="1198" 
d="M543 1044l-250 340l244 164l430 -608q45 -65 68.5 -103t50 -92.5t37 -110t10.5 -122.5q0 -150 -69.5 -273.5t-191.5 -193.5t-270 -70t-269.5 70t-191 193.5t-69.5 273.5q0 175 92 310.5t244 191.5q64 24 135 30zM602 248q84 0 139.5 73.5t55.5 190.5t-55.5 190.5
t-139.5 73.5t-139 -73.5t-55 -190.5t55 -190.5t139 -73.5z" />
    <glyph glyph-name="Delta" unicode="&#x2206;" horiz-adv-x="1376" 
d="M1325 0h-1274v270l447 1164h381l446 -1164v-270zM946 295l-258 766l-260 -766h518z" />
    <glyph glyph-name="product" unicode="&#x220f;" horiz-adv-x="1527" 
d="M1395 0h-375v1120h-512v-1120h-375v1434h1262v-1434z" />
    <glyph glyph-name="summation" unicode="&#x2211;" horiz-adv-x="1333" 
d="M1272 -309h-1256v4l519 866l-519 869v4h1256v-312h-647l338 -561l-338 -559h647v-311z" />
    <glyph glyph-name="minus" unicode="&#x2212;" horiz-adv-x="1196" 
d="M1104 592h-1012v258h1012v-258z" />
    <glyph glyph-name="radical" unicode="&#x221a;" horiz-adv-x="1269" 
d="M823 0h-291l-290 797h-201v258h385l242 -731l327 1314h281z" />
    <glyph glyph-name="infinity" unicode="&#x221e;" horiz-adv-x="1296" 
d="M647 582q-33 -85 -105.5 -139t-162.5 -54q-131 0 -219 97t-88 237q0 142 88 239t219 97q90 0 162.5 -54t105.5 -141q35 88 107 141.5t166 53.5q130 0 217.5 -97t87.5 -239q0 -140 -87.5 -237t-217.5 -97q-94 0 -166 53.5t-107 139.5zM748 723q11 -61 50 -100t95 -39
t91.5 39t35.5 100q0 62 -35 101.5t-92 39.5q-56 0 -95 -39t-50 -102zM549 723q-11 63 -50.5 102t-95.5 39q-57 0 -92 -39.5t-35 -101.5q0 -61 35.5 -100t91.5 -39t95.5 39t50.5 100z" />
    <glyph glyph-name="integral" unicode="&#x222b;" horiz-adv-x="704" 
d="M-31 -410v289q113 0 161 39.5t48 126.5v936q0 225 132 339t425 114v-289q-113 0 -161 -39.5t-48 -126.5v-936q0 -225 -132 -339t-425 -114z" />
    <glyph glyph-name="approxequal" unicode="&#x2248;" horiz-adv-x="1216" 
d="M1135 1124v-270q-46 -51 -119 -86t-152 -35q-67 0 -139.5 26.5t-125 58.5t-121.5 58.5t-130 26.5q-141 0 -266 -135v268q47 53 119 87t151 34q67 0 139.5 -26.5t125 -58.5t121.5 -58.5t130 -26.5q143 0 267 137zM1135 670v-271q-46 -51 -119 -85.5t-152 -34.5
q-67 0 -139.5 26.5t-125 58.5t-121.5 58.5t-130 26.5q-140 0 -266 -136v269q47 53 118.5 86.5t151.5 33.5q67 0 139.5 -26.5t125 -58.5t121.5 -58.5t130 -26.5q142 0 267 138z" />
    <glyph glyph-name="notequal" unicode="&#x2260;" horiz-adv-x="1216" 
d="M1135 367h-584l-111 -224h-243l110 224h-225v258h354l96 192h-450v258h582l112 225h244l-113 -225h228v-258h-359l-96 -192h455v-258z" />
    <glyph glyph-name="lessequal" unicode="&#x2264;" horiz-adv-x="1228" 
d="M1147 315l-1065 443v276l1065 443v-289l-785 -293l785 -291v-289zM1147 0h-1065v258h1065v-258z" />
    <glyph glyph-name="greaterequal" unicode="&#x2265;" horiz-adv-x="1228" 
d="M1147 758l-1065 -443v289l784 291l-784 293v289l1065 -443v-276zM1147 0h-1065v258h1065v-258z" />
    <glyph glyph-name="lozenge" unicode="&#x25ca;" horiz-adv-x="1196" 
d="M737 0h-278l-418 719l418 715h278l418 -715zM598 217l283 502l-283 498l-283 -498z" />
    <glyph glyph-name="apple" unicode="&#xf8ff;" horiz-adv-x="1939" 
d="M1597 137q-128 -128 -291 -194t-337 -66t-337.5 66t-289.5 194q-128 128 -194 291.5t-66 337.5q0 173 66 336t194 291q126 128 289.5 194t337.5 66t337 -66t291 -194q127 -129 194 -292.5t67 -334.5q0 -173 -67 -336.5t-194 -292.5zM1415 717h-80q-12 -12 -35 -12
q-16 0 -25 8.5t-9 21.5h157q7 28 7 43q0 43 -27 72t-72 29q-51 0 -88 -34t-45 -85q-7 -52 20.5 -84.5t77.5 -32.5q81 0 119 74zM1360 786h-82q15 33 49 33q15 0 24 -9.5t9 -23.5zM1645 825q0 22 -15 37t-37 15q-20 0 -34.5 -15t-14.5 -37q0 -20 14.5 -35.5t34.5 -15.5
q21 0 36.5 15t15.5 36zM1161 647l25 139q8 41 -11 67t-57 26q-20 0 -40 -11t-31 -26l8 30h-72l-39 -225h78l22 127q6 37 39 37q13 0 20.5 -11t4.5 -26l-23 -127h76zM422 647l27 154h61l12 71h-203l-12 -71h64l-27 -154h78zM737 754l21 118h-76l-23 -124q-7 -35 -38 -35
t-25 35l22 124h-77l-21 -118q-9 -55 15.5 -83t76.5 -28q49 0 82.5 28t42.5 83zM817 647l39 225h-78l-39 -225h78zM958 825q0 22 -14.5 37t-36.5 15q-21 0 -36 -15.5t-15 -36.5q0 -20 15.5 -35.5t35.5 -15.5q21 0 36 15t15 36zM1503 647l39 225h-78l-39 -225h78z" />
    </font>
</defs>
</svg>
